<?xml version="1.0" encoding="UTF-8" standalone="no"?>
<!DOCTYPE svg PUBLIC "-//W3C//DTD SVG 1.1//EN"
 "http://www.w3.org/Graphics/SVG/1.1/DTD/svg11.dtd">
<!-- Generated by graphviz version 2.40.1 (0)
 -->
<!-- Title: snakemake_dag Pages: 1 -->
<svg width="2181pt" height="692pt"
 viewBox="0.00 0.00 2180.50 692.00" xmlns="http://www.w3.org/2000/svg" xmlns:xlink="http://www.w3.org/1999/xlink">
<g id="graph0" class="graph" transform="scale(1 1) rotate(0) translate(4 688)">
<title>snakemake_dag</title>
<polygon fill="#ffffff" stroke="transparent" points="-4,4 -4,-688 2176.5,-688 2176.5,4 -4,4"/>
<!-- 0 -->
<g id="node1" class="node">
<title>0</title>
<path fill="none" stroke="#56d8d0" stroke-width="2" d="M738.5,-36C738.5,-36 708.5,-36 708.5,-36 702.5,-36 696.5,-30 696.5,-24 696.5,-24 696.5,-12 696.5,-12 696.5,-6 702.5,0 708.5,0 708.5,0 738.5,0 738.5,0 744.5,0 750.5,-6 750.5,-12 750.5,-12 750.5,-24 750.5,-24 750.5,-30 744.5,-36 738.5,-36"/>
<text text-anchor="middle" x="723.5" y="-15.5" font-family="sans" font-size="10.00" fill="#000000">all</text>
</g>
<!-- 1 -->
<g id="node2" class="node">
<title>1</title>
<path fill="none" stroke="#d8a456" stroke-width="2" d="M200.5,-108C200.5,-108 112.5,-108 112.5,-108 106.5,-108 100.5,-102 100.5,-96 100.5,-96 100.5,-84 100.5,-84 100.5,-78 106.5,-72 112.5,-72 112.5,-72 200.5,-72 200.5,-72 206.5,-72 212.5,-78 212.5,-84 212.5,-84 212.5,-96 212.5,-96 212.5,-102 206.5,-108 200.5,-108"/>
<text text-anchor="middle" x="156.5" y="-87.5" font-family="sans" font-size="10.00" fill="#000000">report_falco_before</text>
</g>
<!-- 1&#45;&gt;0 -->
<g id="edge1" class="edge">
<title>1&#45;&gt;0</title>
<path fill="none" stroke="#c0c0c0" stroke-width="2" d="M212.5073,-74.8438C217.2225,-73.7978 221.9322,-72.831 226.5,-72 396.6548,-41.0443 603.0401,-25.5619 686.1606,-20.2199"/>
<polygon fill="#c0c0c0" stroke="#c0c0c0" stroke-width="2" points="686.6074,-23.6987 696.3669,-19.5754 686.1662,-16.7127 686.6074,-23.6987"/>
</g>
<!-- 2 -->
<g id="node3" class="node">
<title>2</title>
<path fill="none" stroke="#97d856" stroke-width="2" d="M83,-180C83,-180 12,-180 12,-180 6,-180 0,-174 0,-168 0,-168 0,-156 0,-156 0,-150 6,-144 12,-144 12,-144 83,-144 83,-144 89,-144 95,-150 95,-156 95,-156 95,-168 95,-168 95,-174 89,-180 83,-180"/>
<text text-anchor="middle" x="47.5" y="-165" font-family="sans" font-size="10.00" fill="#000000">falco_before_PE</text>
<text text-anchor="middle" x="47.5" y="-154" font-family="sans" font-size="10.00" fill="#000000">sample: DME</text>
</g>
<!-- 2&#45;&gt;1 -->
<g id="edge9" class="edge">
<title>2&#45;&gt;1</title>
<path fill="none" stroke="#c0c0c0" stroke-width="2" d="M75.0053,-143.8314C88.818,-134.7074 105.7256,-123.539 120.5529,-113.7449"/>
<polygon fill="#c0c0c0" stroke="#c0c0c0" stroke-width="2" points="122.5886,-116.5949 129.0035,-108.1628 118.7304,-110.7541 122.5886,-116.5949"/>
</g>
<!-- 3 -->
<g id="node4" class="node">
<title>3</title>
<path fill="none" stroke="#97d856" stroke-width="2" d="M196,-180C196,-180 125,-180 125,-180 119,-180 113,-174 113,-168 113,-168 113,-156 113,-156 113,-150 119,-144 125,-144 125,-144 196,-144 196,-144 202,-144 208,-150 208,-156 208,-156 208,-168 208,-168 208,-174 202,-180 196,-180"/>
<text text-anchor="middle" x="160.5" y="-165" font-family="sans" font-size="10.00" fill="#000000">falco_before_PE</text>
<text text-anchor="middle" x="160.5" y="-154" font-family="sans" font-size="10.00" fill="#000000">sample: Input</text>
</g>
<!-- 3&#45;&gt;1 -->
<g id="edge10" class="edge">
<title>3&#45;&gt;1</title>
<path fill="none" stroke="#c0c0c0" stroke-width="2" d="M159.4906,-143.8314C159.0628,-136.131 158.5541,-126.9743 158.0787,-118.4166"/>
<polygon fill="#c0c0c0" stroke="#c0c0c0" stroke-width="2" points="161.5724,-118.2037 157.523,-108.4133 154.5831,-118.592 161.5724,-118.2037"/>
</g>
<!-- 4 -->
<g id="node5" class="node">
<title>4</title>
<path fill="none" stroke="#d88d56" stroke-width="2" d="M557,-540C557,-540 470,-540 470,-540 464,-540 458,-534 458,-528 458,-528 458,-516 458,-516 458,-510 464,-504 470,-504 470,-504 557,-504 557,-504 563,-504 569,-510 569,-516 569,-516 569,-528 569,-528 569,-534 563,-540 557,-540"/>
<text text-anchor="middle" x="513.5" y="-519.5" font-family="sans" font-size="10.00" fill="#000000">report_cutadapt_PE</text>
</g>
<!-- 4&#45;&gt;0 -->
<g id="edge2" class="edge">
<title>4&#45;&gt;0</title>
<path fill="none" stroke="#c0c0c0" stroke-width="2" d="M457.7866,-516.1139C394.5533,-508.3531 296.6518,-492.7145 269.5,-468 238.4215,-439.7113 240.5,-420.0253 240.5,-378 240.5,-378 240.5,-378 240.5,-162 240.5,-69.074 572.9833,-31.2205 686.2395,-21.0218"/>
<polygon fill="#c0c0c0" stroke="#c0c0c0" stroke-width="2" points="686.8417,-24.4825 696.4969,-20.1203 686.2288,-17.5094 686.8417,-24.4825"/>
</g>
<!-- 5 -->
<g id="node6" class="node">
<title>5</title>
<path fill="none" stroke="#56d873" stroke-width="2" d="M575,-612C575,-612 520,-612 520,-612 514,-612 508,-606 508,-600 508,-600 508,-588 508,-588 508,-582 514,-576 520,-576 520,-576 575,-576 575,-576 581,-576 587,-582 587,-588 587,-588 587,-600 587,-600 587,-606 581,-612 575,-612"/>
<text text-anchor="middle" x="547.5" y="-591.5" font-family="sans" font-size="10.00" fill="#000000">trim_UMI_PE</text>
</g>
<!-- 5&#45;&gt;4 -->
<g id="edge11" class="edge">
<title>5&#45;&gt;4</title>
<path fill="none" stroke="#c0c0c0" stroke-width="2" d="M538.9204,-575.8314C535.1642,-567.8771 530.6743,-558.369 526.5202,-549.5723"/>
<polygon fill="#c0c0c0" stroke="#c0c0c0" stroke-width="2" points="529.6301,-547.9612 522.1952,-540.4133 523.3004,-550.9503 529.6301,-547.9612"/>
</g>
<!-- 11 -->
<g id="node12" class="node">
<title>11</title>
<path fill="none" stroke="#56b9d8" stroke-width="2" d="M695.5,-540C695.5,-540 599.5,-540 599.5,-540 593.5,-540 587.5,-534 587.5,-528 587.5,-528 587.5,-516 587.5,-516 587.5,-510 593.5,-504 599.5,-504 599.5,-504 695.5,-504 695.5,-504 701.5,-504 707.5,-510 707.5,-516 707.5,-516 707.5,-528 707.5,-528 707.5,-534 701.5,-540 695.5,-540"/>
<text text-anchor="middle" x="647.5" y="-519.5" font-family="sans" font-size="10.00" fill="#000000">filter_and_trim_reads</text>
</g>
<!-- 5&#45;&gt;11 -->
<g id="edge20" class="edge">
<title>5&#45;&gt;11</title>
<path fill="none" stroke="#c0c0c0" stroke-width="2" d="M572.7342,-575.8314C585.288,-566.7927 600.6283,-555.7476 614.1391,-546.0198"/>
<polygon fill="#c0c0c0" stroke="#c0c0c0" stroke-width="2" points="616.2036,-548.8463 622.2739,-540.1628 612.1134,-543.1655 616.2036,-548.8463"/>
</g>
<!-- 6 -->
<g id="node7" class="node">
<title>6</title>
<path fill="none" stroke="#afd856" stroke-width="2" d="M551,-684C551,-684 494,-684 494,-684 488,-684 482,-678 482,-672 482,-672 482,-660 482,-660 482,-654 488,-648 494,-648 494,-648 551,-648 551,-648 557,-648 563,-654 563,-660 563,-660 563,-672 563,-672 563,-678 557,-684 551,-684"/>
<text text-anchor="middle" x="522.5" y="-669" font-family="sans" font-size="10.00" fill="#000000">cutadapt_PE</text>
<text text-anchor="middle" x="522.5" y="-658" font-family="sans" font-size="10.00" fill="#000000">sample: DME</text>
</g>
<!-- 6&#45;&gt;4 -->
<g id="edge13" class="edge">
<title>6&#45;&gt;4</title>
<path fill="none" stroke="#c0c0c0" stroke-width="2" d="M512.0441,-647.6605C506.8542,-637.5026 501.1409,-624.4443 498.5,-612 494.1018,-591.2748 498.3939,-567.639 503.4961,-549.7911"/>
<polygon fill="#c0c0c0" stroke="#c0c0c0" stroke-width="2" points="506.9081,-550.6054 506.5343,-540.0171 500.2236,-548.5275 506.9081,-550.6054"/>
</g>
<!-- 6&#45;&gt;5 -->
<g id="edge15" class="edge">
<title>6&#45;&gt;5</title>
<path fill="none" stroke="#c0c0c0" stroke-width="2" d="M528.8086,-647.8314C531.5117,-640.0463 534.7316,-630.7729 537.731,-622.1347"/>
<polygon fill="#c0c0c0" stroke="#c0c0c0" stroke-width="2" points="541.1327,-623.0081 541.1065,-612.4133 534.52,-620.7119 541.1327,-623.0081"/>
</g>
<!-- 7 -->
<g id="node8" class="node">
<title>7</title>
<path fill="none" stroke="#56d873" stroke-width="2" d="M711,-612C711,-612 656,-612 656,-612 650,-612 644,-606 644,-600 644,-600 644,-588 644,-588 644,-582 650,-576 656,-576 656,-576 711,-576 711,-576 717,-576 723,-582 723,-588 723,-588 723,-600 723,-600 723,-606 717,-612 711,-612"/>
<text text-anchor="middle" x="683.5" y="-591.5" font-family="sans" font-size="10.00" fill="#000000">trim_UMI_PE</text>
</g>
<!-- 7&#45;&gt;4 -->
<g id="edge12" class="edge">
<title>7&#45;&gt;4</title>
<path fill="none" stroke="#c0c0c0" stroke-width="2" d="M643.6426,-577.1192C620.3209,-567.2418 590.612,-554.6592 565.4692,-544.0105"/>
<polygon fill="#c0c0c0" stroke="#c0c0c0" stroke-width="2" points="566.6526,-540.7108 556.0794,-540.0336 563.9226,-547.1565 566.6526,-540.7108"/>
</g>
<!-- 13 -->
<g id="node14" class="node">
<title>13</title>
<path fill="none" stroke="#56b9d8" stroke-width="2" d="M861.5,-540C861.5,-540 765.5,-540 765.5,-540 759.5,-540 753.5,-534 753.5,-528 753.5,-528 753.5,-516 753.5,-516 753.5,-510 759.5,-504 765.5,-504 765.5,-504 861.5,-504 861.5,-504 867.5,-504 873.5,-510 873.5,-516 873.5,-516 873.5,-528 873.5,-528 873.5,-534 867.5,-540 861.5,-540"/>
<text text-anchor="middle" x="813.5" y="-519.5" font-family="sans" font-size="10.00" fill="#000000">filter_and_trim_reads</text>
</g>
<!-- 7&#45;&gt;13 -->
<g id="edge22" class="edge">
<title>7&#45;&gt;13</title>
<path fill="none" stroke="#c0c0c0" stroke-width="2" d="M716.3045,-575.8314C733.0862,-566.5368 753.6985,-555.1208 771.6163,-545.1971"/>
<polygon fill="#c0c0c0" stroke="#c0c0c0" stroke-width="2" points="773.6538,-548.0696 780.706,-540.1628 770.2623,-541.9461 773.6538,-548.0696"/>
</g>
<!-- 8 -->
<g id="node9" class="node">
<title>8</title>
<path fill="none" stroke="#afd856" stroke-width="2" d="M670,-684C670,-684 611,-684 611,-684 605,-684 599,-678 599,-672 599,-672 599,-660 599,-660 599,-654 605,-648 611,-648 611,-648 670,-648 670,-648 676,-648 682,-654 682,-660 682,-660 682,-672 682,-672 682,-678 676,-684 670,-684"/>
<text text-anchor="middle" x="640.5" y="-669" font-family="sans" font-size="10.00" fill="#000000">cutadapt_PE</text>
<text text-anchor="middle" x="640.5" y="-658" font-family="sans" font-size="10.00" fill="#000000">sample: Input</text>
</g>
<!-- 8&#45;&gt;4 -->
<g id="edge14" class="edge">
<title>8&#45;&gt;4</title>
<path fill="none" stroke="#c0c0c0" stroke-width="2" d="M634.8598,-647.7605C628.1429,-628.2899 615.4012,-597.3619 596.5,-576 585.9404,-564.0657 572.1458,-553.6941 558.8433,-545.3181"/>
<polygon fill="#c0c0c0" stroke="#c0c0c0" stroke-width="2" points="560.5813,-542.279 550.2117,-540.1058 556.9627,-548.2712 560.5813,-542.279"/>
</g>
<!-- 8&#45;&gt;7 -->
<g id="edge16" class="edge">
<title>8&#45;&gt;7</title>
<path fill="none" stroke="#c0c0c0" stroke-width="2" d="M651.3507,-647.8314C656.2023,-639.7079 662.0217,-629.9637 667.368,-621.0118"/>
<polygon fill="#c0c0c0" stroke="#c0c0c0" stroke-width="2" points="670.3806,-622.7933 672.5032,-612.4133 664.3708,-619.2041 670.3806,-622.7933"/>
</g>
<!-- 9 -->
<g id="node10" class="node">
<title>9</title>
<path fill="none" stroke="#d85656" stroke-width="2" d="M360,-396C360,-396 281,-396 281,-396 275,-396 269,-390 269,-384 269,-384 269,-372 269,-372 269,-366 275,-360 281,-360 281,-360 360,-360 360,-360 366,-360 372,-366 372,-372 372,-372 372,-384 372,-384 372,-390 366,-396 360,-396"/>
<text text-anchor="middle" x="320.5" y="-375.5" font-family="sans" font-size="10.00" fill="#000000">report_falco_after</text>
</g>
<!-- 9&#45;&gt;0 -->
<g id="edge3" class="edge">
<title>9&#45;&gt;0</title>
<path fill="none" stroke="#c0c0c0" stroke-width="2" d="M324.8512,-359.9379C331.0022,-332.7787 341.5,-279.7286 341.5,-234 341.5,-234 341.5,-234 341.5,-162 341.5,-88.8185 590.0762,-40.0001 686.1886,-23.8596"/>
<polygon fill="#c0c0c0" stroke="#c0c0c0" stroke-width="2" points="687.0385,-27.2667 696.3337,-22.1826 685.8968,-20.3604 687.0385,-27.2667"/>
</g>
<!-- 10 -->
<g id="node11" class="node">
<title>10</title>
<path fill="none" stroke="#56d88a" stroke-width="2" d="M352.5,-468C352.5,-468 290.5,-468 290.5,-468 284.5,-468 278.5,-462 278.5,-456 278.5,-456 278.5,-444 278.5,-444 278.5,-438 284.5,-432 290.5,-432 290.5,-432 352.5,-432 352.5,-432 358.5,-432 364.5,-438 364.5,-444 364.5,-444 364.5,-456 364.5,-456 364.5,-462 358.5,-468 352.5,-468"/>
<text text-anchor="middle" x="321.5" y="-447.5" font-family="sans" font-size="10.00" fill="#000000">falco_after_PE</text>
</g>
<!-- 10&#45;&gt;9 -->
<g id="edge17" class="edge">
<title>10&#45;&gt;9</title>
<path fill="none" stroke="#c0c0c0" stroke-width="2" d="M321.2477,-431.8314C321.1407,-424.131 321.0135,-414.9743 320.8947,-406.4166"/>
<polygon fill="#c0c0c0" stroke="#c0c0c0" stroke-width="2" points="324.3944,-406.3637 320.7557,-396.4133 317.3951,-406.4609 324.3944,-406.3637"/>
</g>
<!-- 11&#45;&gt;10 -->
<g id="edge19" class="edge">
<title>11&#45;&gt;10</title>
<path fill="none" stroke="#c0c0c0" stroke-width="2" d="M587.2157,-506.3039C583.9329,-505.5099 580.6782,-504.737 577.5,-504 500.57,-486.1614 480.7354,-484.4663 403.5,-468 394.1899,-466.0151 384.2929,-463.8714 374.7146,-461.7791"/>
<polygon fill="#c0c0c0" stroke="#c0c0c0" stroke-width="2" points="375.4035,-458.3471 364.8862,-459.6262 373.9056,-465.185 375.4035,-458.3471"/>
</g>
<!-- 15 -->
<g id="node16" class="node">
<title>15</title>
<path fill="none" stroke="#56d8c1" stroke-width="2" d="M652.5,-468C652.5,-468 530.5,-468 530.5,-468 524.5,-468 518.5,-462 518.5,-456 518.5,-456 518.5,-444 518.5,-444 518.5,-438 524.5,-432 530.5,-432 530.5,-432 652.5,-432 652.5,-432 658.5,-432 664.5,-438 664.5,-444 664.5,-444 664.5,-456 664.5,-456 664.5,-462 658.5,-468 652.5,-468"/>
<text text-anchor="middle" x="591.5" y="-447.5" font-family="sans" font-size="10.00" fill="#000000">mapping_mm_genome_PE</text>
</g>
<!-- 11&#45;&gt;15 -->
<g id="edge31" class="edge">
<title>11&#45;&gt;15</title>
<path fill="none" stroke="#c0c0c0" stroke-width="2" d="M633.3688,-503.8314C626.9189,-495.5386 619.1555,-485.557 612.0748,-476.4533"/>
<polygon fill="#c0c0c0" stroke="#c0c0c0" stroke-width="2" points="614.7236,-474.158 605.8214,-468.4133 609.1981,-478.4556 614.7236,-474.158"/>
</g>
<!-- 24 -->
<g id="node25" class="node">
<title>24</title>
<path fill="none" stroke="#d8cb56" stroke-width="2" d="M1319,-468C1319,-468 1204,-468 1204,-468 1198,-468 1192,-462 1192,-456 1192,-456 1192,-444 1192,-444 1192,-438 1198,-432 1204,-432 1204,-432 1319,-432 1319,-432 1325,-432 1331,-438 1331,-444 1331,-444 1331,-456 1331,-456 1331,-462 1325,-468 1319,-468"/>
<text text-anchor="middle" x="1261.5" y="-447.5" font-family="sans" font-size="10.00" fill="#000000">mapping_hg_genome_PE</text>
</g>
<!-- 11&#45;&gt;24 -->
<g id="edge49" class="edge">
<title>11&#45;&gt;24</title>
<path fill="none" stroke="#c0c0c0" stroke-width="2" d="M707.6582,-510.0687C719.8246,-507.8725 732.5495,-505.7301 744.5,-504 898.6322,-481.6856 1079.8993,-464.9169 1181.6749,-456.3573"/>
<polygon fill="#c0c0c0" stroke="#c0c0c0" stroke-width="2" points="1182.2017,-459.8256 1191.8753,-455.5046 1181.6185,-452.8499 1182.2017,-459.8256"/>
</g>
<!-- 40 -->
<g id="node41" class="node">
<title>40</title>
<path fill="none" stroke="#61d856" stroke-width="2" d="M1806.5,-468C1806.5,-468 1714.5,-468 1714.5,-468 1708.5,-468 1702.5,-462 1702.5,-456 1702.5,-456 1702.5,-444 1702.5,-444 1702.5,-438 1708.5,-432 1714.5,-432 1714.5,-432 1806.5,-432 1806.5,-432 1812.5,-432 1818.5,-438 1818.5,-444 1818.5,-444 1818.5,-456 1818.5,-456 1818.5,-462 1812.5,-468 1806.5,-468"/>
<text text-anchor="middle" x="1760.5" y="-447.5" font-family="sans" font-size="10.00" fill="#000000">mapping_spikein_PE</text>
</g>
<!-- 11&#45;&gt;40 -->
<g id="edge75" class="edge">
<title>11&#45;&gt;40</title>
<path fill="none" stroke="#c0c0c0" stroke-width="2" d="M707.5851,-509.5041C719.7574,-507.3529 732.5031,-505.3716 744.5,-504 1104.2875,-462.8644 1197.1699,-492.0769 1558.5,-468 1603.0032,-465.0346 1652.9258,-460.5963 1692.0069,-456.8691"/>
<polygon fill="#c0c0c0" stroke="#c0c0c0" stroke-width="2" points="1692.5932,-460.3289 1702.2126,-455.8884 1691.9236,-453.361 1692.5932,-460.3289"/>
</g>
<!-- 12 -->
<g id="node13" class="node">
<title>12</title>
<path fill="none" stroke="#56d88a" stroke-width="2" d="M486.5,-468C486.5,-468 424.5,-468 424.5,-468 418.5,-468 412.5,-462 412.5,-456 412.5,-456 412.5,-444 412.5,-444 412.5,-438 418.5,-432 424.5,-432 424.5,-432 486.5,-432 486.5,-432 492.5,-432 498.5,-438 498.5,-444 498.5,-444 498.5,-456 498.5,-456 498.5,-462 492.5,-468 486.5,-468"/>
<text text-anchor="middle" x="455.5" y="-447.5" font-family="sans" font-size="10.00" fill="#000000">falco_after_PE</text>
</g>
<!-- 12&#45;&gt;9 -->
<g id="edge18" class="edge">
<title>12&#45;&gt;9</title>
<path fill="none" stroke="#c0c0c0" stroke-width="2" d="M421.4338,-431.8314C403.8467,-422.4516 382.2084,-410.9112 363.4832,-400.9244"/>
<polygon fill="#c0c0c0" stroke="#c0c0c0" stroke-width="2" points="365.0259,-397.7805 354.5553,-396.1628 361.7318,-403.957 365.0259,-397.7805"/>
</g>
<!-- 13&#45;&gt;12 -->
<g id="edge21" class="edge">
<title>13&#45;&gt;12</title>
<path fill="none" stroke="#c0c0c0" stroke-width="2" d="M753.4966,-510.756C741.26,-508.4937 728.4689,-506.1512 716.5,-504 624.5918,-487.481 600.0475,-490.8286 509.5,-468 509.1676,-467.9162 508.8343,-467.8314 508.5002,-467.7455"/>
<polygon fill="#c0c0c0" stroke="#c0c0c0" stroke-width="2" points="509.2296,-464.3158 498.6581,-465.0182 507.3602,-471.0616 509.2296,-464.3158"/>
</g>
<!-- 16 -->
<g id="node17" class="node">
<title>16</title>
<path fill="none" stroke="#56d8c1" stroke-width="2" d="M874.5,-468C874.5,-468 752.5,-468 752.5,-468 746.5,-468 740.5,-462 740.5,-456 740.5,-456 740.5,-444 740.5,-444 740.5,-438 746.5,-432 752.5,-432 752.5,-432 874.5,-432 874.5,-432 880.5,-432 886.5,-438 886.5,-444 886.5,-444 886.5,-456 886.5,-456 886.5,-462 880.5,-468 874.5,-468"/>
<text text-anchor="middle" x="813.5" y="-447.5" font-family="sans" font-size="10.00" fill="#000000">mapping_mm_genome_PE</text>
</g>
<!-- 13&#45;&gt;16 -->
<g id="edge32" class="edge">
<title>13&#45;&gt;16</title>
<path fill="none" stroke="#c0c0c0" stroke-width="2" d="M813.5,-503.8314C813.5,-496.131 813.5,-486.9743 813.5,-478.4166"/>
<polygon fill="#c0c0c0" stroke="#c0c0c0" stroke-width="2" points="817.0001,-478.4132 813.5,-468.4133 810.0001,-478.4133 817.0001,-478.4132"/>
</g>
<!-- 25 -->
<g id="node26" class="node">
<title>25</title>
<path fill="none" stroke="#d8cb56" stroke-width="2" d="M1537,-468C1537,-468 1422,-468 1422,-468 1416,-468 1410,-462 1410,-456 1410,-456 1410,-444 1410,-444 1410,-438 1416,-432 1422,-432 1422,-432 1537,-432 1537,-432 1543,-432 1549,-438 1549,-444 1549,-444 1549,-456 1549,-456 1549,-462 1543,-468 1537,-468"/>
<text text-anchor="middle" x="1479.5" y="-447.5" font-family="sans" font-size="10.00" fill="#000000">mapping_hg_genome_PE</text>
</g>
<!-- 13&#45;&gt;25 -->
<g id="edge50" class="edge">
<title>13&#45;&gt;25</title>
<path fill="none" stroke="#c0c0c0" stroke-width="2" d="M873.6228,-516.3657C971.5327,-507.072 1171.4842,-487.5992 1340.5,-468 1359.7456,-465.7683 1380.4656,-463.1836 1399.8812,-460.6813"/>
<polygon fill="#c0c0c0" stroke="#c0c0c0" stroke-width="2" points="1400.4335,-464.1391 1409.9007,-459.3826 1399.5337,-457.1972 1400.4335,-464.1391"/>
</g>
<!-- 43 -->
<g id="node44" class="node">
<title>43</title>
<path fill="none" stroke="#61d856" stroke-width="2" d="M2026.5,-468C2026.5,-468 1934.5,-468 1934.5,-468 1928.5,-468 1922.5,-462 1922.5,-456 1922.5,-456 1922.5,-444 1922.5,-444 1922.5,-438 1928.5,-432 1934.5,-432 1934.5,-432 2026.5,-432 2026.5,-432 2032.5,-432 2038.5,-438 2038.5,-444 2038.5,-444 2038.5,-456 2038.5,-456 2038.5,-462 2032.5,-468 2026.5,-468"/>
<text text-anchor="middle" x="1980.5" y="-447.5" font-family="sans" font-size="10.00" fill="#000000">mapping_spikein_PE</text>
</g>
<!-- 13&#45;&gt;43 -->
<g id="edge79" class="edge">
<title>13&#45;&gt;43</title>
<path fill="none" stroke="#c0c0c0" stroke-width="2" d="M873.5948,-520.141C1030.6259,-514.9926 1466.0954,-498.8505 1827.5,-468 1855.3834,-465.6198 1886.0328,-462.1783 1912.5293,-458.9407"/>
<polygon fill="#c0c0c0" stroke="#c0c0c0" stroke-width="2" points="1912.9714,-462.4128 1922.4665,-457.7125 1912.1127,-455.4656 1912.9714,-462.4128"/>
</g>
<!-- 14 -->
<g id="node15" class="node">
<title>14</title>
<path fill="none" stroke="#56d863" stroke-width="2" d="M622.5,-180C622.5,-180 482.5,-180 482.5,-180 476.5,-180 470.5,-174 470.5,-168 470.5,-168 470.5,-156 470.5,-156 470.5,-150 476.5,-144 482.5,-144 482.5,-144 622.5,-144 622.5,-144 628.5,-144 634.5,-150 634.5,-156 634.5,-156 634.5,-168 634.5,-168 634.5,-174 628.5,-180 622.5,-180"/>
<text text-anchor="middle" x="552.5" y="-159.5" font-family="sans" font-size="10.00" fill="#000000">report_mapping_mm_genome</text>
</g>
<!-- 14&#45;&gt;0 -->
<g id="edge4" class="edge">
<title>14&#45;&gt;0</title>
<path fill="none" stroke="#c0c0c0" stroke-width="2" d="M574.1573,-143.7623C604.6086,-118.119 660.1621,-71.3372 694.2564,-42.6262"/>
<polygon fill="#c0c0c0" stroke="#c0c0c0" stroke-width="2" points="696.6239,-45.2082 702.0186,-36.0896 692.115,-39.8538 696.6239,-45.2082"/>
</g>
<!-- 15&#45;&gt;14 -->
<g id="edge23" class="edge">
<title>15&#45;&gt;14</title>
<path fill="none" stroke="#c0c0c0" stroke-width="2" d="M523.1072,-431.9675C479.7796,-419.8556 430.7524,-404.5928 424.5,-396 377.4313,-331.312 380.2715,-282.6621 424.5,-216 433.5548,-202.3524 446.8122,-192.1456 461.4056,-184.5144"/>
<polygon fill="#c0c0c0" stroke="#c0c0c0" stroke-width="2" points="463.1347,-187.5669 470.639,-180.0879 460.1086,-181.2547 463.1347,-187.5669"/>
</g>
<!-- 17 -->
<g id="node18" class="node">
<title>17</title>
<path fill="none" stroke="#70d856" stroke-width="2" d="M648.5,-396C648.5,-396 478.5,-396 478.5,-396 472.5,-396 466.5,-390 466.5,-384 466.5,-384 466.5,-372 466.5,-372 466.5,-366 472.5,-360 478.5,-360 478.5,-360 648.5,-360 648.5,-360 654.5,-360 660.5,-366 660.5,-372 660.5,-372 660.5,-384 660.5,-384 660.5,-390 654.5,-396 648.5,-396"/>
<text text-anchor="middle" x="563.5" y="-375.5" font-family="sans" font-size="10.00" fill="#000000">flag_sort_index_depth_mm_genome</text>
</g>
<!-- 15&#45;&gt;17 -->
<g id="edge33" class="edge">
<title>15&#45;&gt;17</title>
<path fill="none" stroke="#c0c0c0" stroke-width="2" d="M584.4344,-431.8314C581.374,-423.9617 577.7221,-414.5712 574.3318,-405.8533"/>
<polygon fill="#c0c0c0" stroke="#c0c0c0" stroke-width="2" points="577.5473,-404.4647 570.6607,-396.4133 571.0232,-407.0019 577.5473,-404.4647"/>
</g>
<!-- 20 -->
<g id="node21" class="node">
<title>20</title>
<path fill="none" stroke="#56d89a" stroke-width="2" d="M734.5,-324C734.5,-324 642.5,-324 642.5,-324 636.5,-324 630.5,-318 630.5,-312 630.5,-312 630.5,-300 630.5,-300 630.5,-294 636.5,-288 642.5,-288 642.5,-288 734.5,-288 734.5,-288 740.5,-288 746.5,-294 746.5,-300 746.5,-300 746.5,-312 746.5,-312 746.5,-318 740.5,-324 734.5,-324"/>
<text text-anchor="middle" x="688.5" y="-303.5" font-family="sans" font-size="10.00" fill="#000000">dedup_mm_genome</text>
</g>
<!-- 15&#45;&gt;20 -->
<g id="edge36" class="edge">
<title>15&#45;&gt;20</title>
<path fill="none" stroke="#c0c0c0" stroke-width="2" d="M629.2892,-431.8215C643.9461,-422.9597 659.5619,-410.9508 669.5,-396 681.6761,-377.6823 686.2501,-353.023 687.8775,-334.1484"/>
<polygon fill="#c0c0c0" stroke="#c0c0c0" stroke-width="2" points="691.3769,-334.2678 688.5194,-324.0656 684.3911,-333.823 691.3769,-334.2678"/>
</g>
<!-- 16&#45;&gt;14 -->
<g id="edge24" class="edge">
<title>16&#45;&gt;14</title>
<path fill="none" stroke="#c0c0c0" stroke-width="2" d="M740.4975,-440.1336C637.6773,-426.0678 462.1039,-401.3549 457.5,-396 429.6292,-363.5828 412.3163,-337.472 485.5,-216 492.3742,-204.59 502.5877,-194.5773 512.9805,-186.3728"/>
<polygon fill="#c0c0c0" stroke="#c0c0c0" stroke-width="2" points="515.3592,-188.9655 521.2933,-180.1884 511.181,-183.3493 515.3592,-188.9655"/>
</g>
<!-- 18 -->
<g id="node19" class="node">
<title>18</title>
<path fill="none" stroke="#70d856" stroke-width="2" d="M898.5,-396C898.5,-396 728.5,-396 728.5,-396 722.5,-396 716.5,-390 716.5,-384 716.5,-384 716.5,-372 716.5,-372 716.5,-366 722.5,-360 728.5,-360 728.5,-360 898.5,-360 898.5,-360 904.5,-360 910.5,-366 910.5,-372 910.5,-372 910.5,-384 910.5,-384 910.5,-390 904.5,-396 898.5,-396"/>
<text text-anchor="middle" x="813.5" y="-375.5" font-family="sans" font-size="10.00" fill="#000000">flag_sort_index_depth_mm_genome</text>
</g>
<!-- 16&#45;&gt;18 -->
<g id="edge34" class="edge">
<title>16&#45;&gt;18</title>
<path fill="none" stroke="#c0c0c0" stroke-width="2" d="M813.5,-431.8314C813.5,-424.131 813.5,-414.9743 813.5,-406.4166"/>
<polygon fill="#c0c0c0" stroke="#c0c0c0" stroke-width="2" points="817.0001,-406.4132 813.5,-396.4133 810.0001,-406.4133 817.0001,-406.4132"/>
</g>
<!-- 22 -->
<g id="node23" class="node">
<title>22</title>
<path fill="none" stroke="#56d89a" stroke-width="2" d="M984.5,-324C984.5,-324 892.5,-324 892.5,-324 886.5,-324 880.5,-318 880.5,-312 880.5,-312 880.5,-300 880.5,-300 880.5,-294 886.5,-288 892.5,-288 892.5,-288 984.5,-288 984.5,-288 990.5,-288 996.5,-294 996.5,-300 996.5,-300 996.5,-312 996.5,-312 996.5,-318 990.5,-324 984.5,-324"/>
<text text-anchor="middle" x="938.5" y="-303.5" font-family="sans" font-size="10.00" fill="#000000">dedup_mm_genome</text>
</g>
<!-- 16&#45;&gt;22 -->
<g id="edge39" class="edge">
<title>16&#45;&gt;22</title>
<path fill="none" stroke="#c0c0c0" stroke-width="2" d="M870.9995,-431.9135C888.9578,-423.6252 907.2519,-411.9836 919.5,-396 932.9601,-378.4347 937.4153,-353.5147 938.6705,-334.3492"/>
<polygon fill="#c0c0c0" stroke="#c0c0c0" stroke-width="2" points="942.1778,-334.2352 939.0798,-324.1034 935.1834,-333.9557 942.1778,-334.2352"/>
</g>
<!-- 17&#45;&gt;14 -->
<g id="edge25" class="edge">
<title>17&#45;&gt;14</title>
<path fill="none" stroke="#c0c0c0" stroke-width="2" d="M532.5239,-359.8776C520.1431,-350.8263 507.2418,-338.6581 500.5,-324 480.4429,-280.3914 482.5503,-260.5175 500.5,-216 504.8225,-205.2796 512.4044,-195.4983 520.4639,-187.2948"/>
<polygon fill="#c0c0c0" stroke="#c0c0c0" stroke-width="2" points="523.073,-189.644 527.9199,-180.2228 518.2558,-184.5652 523.073,-189.644"/>
</g>
<!-- 17&#45;&gt;20 -->
<g id="edge37" class="edge">
<title>17&#45;&gt;20</title>
<path fill="none" stroke="#c0c0c0" stroke-width="2" d="M595.0428,-359.8314C611.1791,-350.5368 630.9986,-339.1208 648.2272,-329.1971"/>
<polygon fill="#c0c0c0" stroke="#c0c0c0" stroke-width="2" points="650.0489,-332.187 656.9673,-324.1628 646.555,-326.1212 650.0489,-332.187"/>
</g>
<!-- 18&#45;&gt;14 -->
<g id="edge26" class="edge">
<title>18&#45;&gt;14</title>
<path fill="none" stroke="#c0c0c0" stroke-width="2" d="M716.1459,-361.2552C684.4861,-353.0955 650.1528,-341.1917 621.5,-324 583.4942,-301.1965 569.0248,-293.1263 552.5,-252 544.6596,-232.4872 545.063,-208.6162 547.2093,-190.3626"/>
<polygon fill="#c0c0c0" stroke="#c0c0c0" stroke-width="2" points="550.6919,-190.731 548.6252,-180.3397 543.7607,-189.7518 550.6919,-190.731"/>
</g>
<!-- 18&#45;&gt;22 -->
<g id="edge40" class="edge">
<title>18&#45;&gt;22</title>
<path fill="none" stroke="#c0c0c0" stroke-width="2" d="M845.0428,-359.8314C861.1791,-350.5368 880.9986,-339.1208 898.2272,-329.1971"/>
<polygon fill="#c0c0c0" stroke="#c0c0c0" stroke-width="2" points="900.0489,-332.187 906.9673,-324.1628 896.555,-326.1212 900.0489,-332.187"/>
</g>
<!-- 19 -->
<g id="node20" class="node">
<title>19</title>
<path fill="none" stroke="#567bd8" stroke-width="2" d="M798,-252C798,-252 593,-252 593,-252 587,-252 581,-246 581,-240 581,-240 581,-228 581,-228 581,-222 587,-216 593,-216 593,-216 798,-216 798,-216 804,-216 810,-222 810,-228 810,-228 810,-240 810,-240 810,-246 804,-252 798,-252"/>
<text text-anchor="middle" x="695.5" y="-231.5" font-family="sans" font-size="10.00" fill="#000000">flag_sort_index_depth_mm_genome_dedup</text>
</g>
<!-- 19&#45;&gt;14 -->
<g id="edge27" class="edge">
<title>19&#45;&gt;14</title>
<path fill="none" stroke="#c0c0c0" stroke-width="2" d="M659.4151,-215.8314C640.7011,-206.4089 617.6568,-194.8062 597.76,-184.7883"/>
<polygon fill="#c0c0c0" stroke="#c0c0c0" stroke-width="2" points="599.0792,-181.5339 588.5734,-180.1628 595.9311,-187.7861 599.0792,-181.5339"/>
</g>
<!-- 33 -->
<g id="node34" class="node">
<title>33</title>
<path fill="none" stroke="#566bd8" stroke-width="2" d="M862,-180C862,-180 701,-180 701,-180 695,-180 689,-174 689,-168 689,-168 689,-156 689,-156 689,-150 695,-144 701,-144 701,-144 862,-144 862,-144 868,-144 874,-150 874,-156 874,-156 874,-168 874,-168 874,-174 868,-180 862,-180"/>
<text text-anchor="middle" x="781.5" y="-159.5" font-family="sans" font-size="10.00" fill="#000000">convert_bam_to_tsv_mm_genome</text>
</g>
<!-- 19&#45;&gt;33 -->
<g id="edge62" class="edge">
<title>19&#45;&gt;33</title>
<path fill="none" stroke="#c0c0c0" stroke-width="2" d="M717.2014,-215.8314C727.6921,-207.0485 740.4455,-196.3712 751.8194,-186.8489"/>
<polygon fill="#c0c0c0" stroke="#c0c0c0" stroke-width="2" points="754.3847,-189.2659 759.8055,-180.1628 749.8911,-183.8986 754.3847,-189.2659"/>
</g>
<!-- 20&#45;&gt;14 -->
<g id="edge29" class="edge">
<title>20&#45;&gt;14</title>
<path fill="none" stroke="#c0c0c0" stroke-width="2" d="M630.2954,-291.2031C608.8865,-282.9846 586.2858,-270.5399 571.5,-252 557.6379,-234.6184 553.2337,-209.5249 552.1003,-190.2478"/>
<polygon fill="#c0c0c0" stroke="#c0c0c0" stroke-width="2" points="555.5974,-190.1011 551.7677,-180.2226 548.6013,-190.3332 555.5974,-190.1011"/>
</g>
<!-- 20&#45;&gt;19 -->
<g id="edge35" class="edge">
<title>20&#45;&gt;19</title>
<path fill="none" stroke="#c0c0c0" stroke-width="2" d="M690.2664,-287.8314C691.015,-280.131 691.9053,-270.9743 692.7373,-262.4166"/>
<polygon fill="#c0c0c0" stroke="#c0c0c0" stroke-width="2" points="696.2256,-262.7051 693.7098,-252.4133 689.2585,-262.0276 696.2256,-262.7051"/>
</g>
<!-- 20&#45;&gt;33 -->
<g id="edge61" class="edge">
<title>20&#45;&gt;33</title>
<path fill="none" stroke="#c0c0c0" stroke-width="2" d="M746.5674,-297.1498C773.5166,-289.817 803.1473,-276.4283 819.5,-252 832.8142,-232.1106 819.903,-206.8011 805.6335,-188.0906"/>
<polygon fill="#c0c0c0" stroke="#c0c0c0" stroke-width="2" points="808.3031,-185.8257 799.29,-180.2567 802.863,-190.2309 808.3031,-185.8257"/>
</g>
<!-- 21 -->
<g id="node22" class="node">
<title>21</title>
<path fill="none" stroke="#567bd8" stroke-width="2" d="M1122,-252C1122,-252 917,-252 917,-252 911,-252 905,-246 905,-240 905,-240 905,-228 905,-228 905,-222 911,-216 917,-216 917,-216 1122,-216 1122,-216 1128,-216 1134,-222 1134,-228 1134,-228 1134,-240 1134,-240 1134,-246 1128,-252 1122,-252"/>
<text text-anchor="middle" x="1019.5" y="-231.5" font-family="sans" font-size="10.00" fill="#000000">flag_sort_index_depth_mm_genome_dedup</text>
</g>
<!-- 21&#45;&gt;14 -->
<g id="edge28" class="edge">
<title>21&#45;&gt;14</title>
<path fill="none" stroke="#c0c0c0" stroke-width="2" d="M904.96,-216.3407C825.0057,-204.0137 719.6604,-187.7721 645.0263,-176.2653"/>
<polygon fill="#c0c0c0" stroke="#c0c0c0" stroke-width="2" points="645.1214,-172.7387 634.7048,-174.674 644.0547,-179.6569 645.1214,-172.7387"/>
</g>
<!-- 34 -->
<g id="node35" class="node">
<title>34</title>
<path fill="none" stroke="#566bd8" stroke-width="2" d="M1100,-180C1100,-180 939,-180 939,-180 933,-180 927,-174 927,-168 927,-168 927,-156 927,-156 927,-150 933,-144 939,-144 939,-144 1100,-144 1100,-144 1106,-144 1112,-150 1112,-156 1112,-156 1112,-168 1112,-168 1112,-174 1106,-180 1100,-180"/>
<text text-anchor="middle" x="1019.5" y="-159.5" font-family="sans" font-size="10.00" fill="#000000">convert_bam_to_tsv_mm_genome</text>
</g>
<!-- 21&#45;&gt;34 -->
<g id="edge64" class="edge">
<title>21&#45;&gt;34</title>
<path fill="none" stroke="#c0c0c0" stroke-width="2" d="M1019.5,-215.8314C1019.5,-208.131 1019.5,-198.9743 1019.5,-190.4166"/>
<polygon fill="#c0c0c0" stroke="#c0c0c0" stroke-width="2" points="1023.0001,-190.4132 1019.5,-180.4133 1016.0001,-190.4133 1023.0001,-190.4132"/>
</g>
<!-- 22&#45;&gt;14 -->
<g id="edge30" class="edge">
<title>22&#45;&gt;14</title>
<path fill="none" stroke="#c0c0c0" stroke-width="2" d="M920.0461,-287.7472C898.0234,-267.0557 859.1719,-233.885 819.5,-216 788.7043,-202.1165 709.1337,-186.9122 644.8145,-176.1845"/>
<polygon fill="#c0c0c0" stroke="#c0c0c0" stroke-width="2" points="645.0693,-172.6792 634.6325,-174.5021 643.9281,-179.5856 645.0693,-172.6792"/>
</g>
<!-- 22&#45;&gt;21 -->
<g id="edge38" class="edge">
<title>22&#45;&gt;21</title>
<path fill="none" stroke="#c0c0c0" stroke-width="2" d="M958.9397,-287.8314C968.8205,-279.0485 980.8324,-268.3712 991.545,-258.8489"/>
<polygon fill="#c0c0c0" stroke="#c0c0c0" stroke-width="2" points="993.918,-261.4224 999.0668,-252.1628 989.2674,-256.1906 993.918,-261.4224"/>
</g>
<!-- 22&#45;&gt;34 -->
<g id="edge63" class="edge">
<title>22&#45;&gt;34</title>
<path fill="none" stroke="#c0c0c0" stroke-width="2" d="M996.5438,-298.6373C1050.6491,-290.4413 1125.6108,-275.2117 1143.5,-252 1153.267,-239.327 1152.2689,-229.3831 1143.5,-216 1134.5482,-202.3379 1121.3056,-192.1133 1106.7651,-184.467"/>
<polygon fill="#c0c0c0" stroke="#c0c0c0" stroke-width="2" points="1108.0981,-181.2241 1097.5706,-180.0316 1105.0566,-187.5289 1108.0981,-181.2241"/>
</g>
<!-- 23 -->
<g id="node24" class="node">
<title>23</title>
<path fill="none" stroke="#d6d856" stroke-width="2" d="M1380.5,-180C1380.5,-180 1248.5,-180 1248.5,-180 1242.5,-180 1236.5,-174 1236.5,-168 1236.5,-168 1236.5,-156 1236.5,-156 1236.5,-150 1242.5,-144 1248.5,-144 1248.5,-144 1380.5,-144 1380.5,-144 1386.5,-144 1392.5,-150 1392.5,-156 1392.5,-156 1392.5,-168 1392.5,-168 1392.5,-174 1386.5,-180 1380.5,-180"/>
<text text-anchor="middle" x="1314.5" y="-159.5" font-family="sans" font-size="10.00" fill="#000000">report_mapping_hg_genome</text>
</g>
<!-- 23&#45;&gt;0 -->
<g id="edge5" class="edge">
<title>23&#45;&gt;0</title>
<path fill="none" stroke="#c0c0c0" stroke-width="2" d="M1240.5464,-143.9808C1112.943,-112.8897 855.9156,-50.2637 760.3714,-26.9839"/>
<polygon fill="#c0c0c0" stroke="#c0c0c0" stroke-width="2" points="761.1289,-23.5661 750.5845,-24.5993 759.4717,-30.3672 761.1289,-23.5661"/>
</g>
<!-- 24&#45;&gt;23 -->
<g id="edge41" class="edge">
<title>24&#45;&gt;23</title>
<path fill="none" stroke="#c0c0c0" stroke-width="2" d="M1245.0719,-431.989C1237.1975,-422.1289 1228.602,-409.2441 1224.5,-396 1200.8311,-319.5815 1185.0841,-285.616 1224.5,-216 1231.7945,-203.1166 1243.5245,-192.9716 1256.1398,-185.1245"/>
<polygon fill="#c0c0c0" stroke="#c0c0c0" stroke-width="2" points="1258.042,-188.0683 1264.9713,-180.0537 1254.5564,-181.9978 1258.042,-188.0683"/>
</g>
<!-- 26 -->
<g id="node27" class="node">
<title>26</title>
<path fill="none" stroke="#bed856" stroke-width="2" d="M1440.5,-396C1440.5,-396 1278.5,-396 1278.5,-396 1272.5,-396 1266.5,-390 1266.5,-384 1266.5,-384 1266.5,-372 1266.5,-372 1266.5,-366 1272.5,-360 1278.5,-360 1278.5,-360 1440.5,-360 1440.5,-360 1446.5,-360 1452.5,-366 1452.5,-372 1452.5,-372 1452.5,-384 1452.5,-384 1452.5,-390 1446.5,-396 1440.5,-396"/>
<text text-anchor="middle" x="1359.5" y="-375.5" font-family="sans" font-size="10.00" fill="#000000">flag_sort_index_depth_hg_genome</text>
</g>
<!-- 24&#45;&gt;26 -->
<g id="edge51" class="edge">
<title>24&#45;&gt;26</title>
<path fill="none" stroke="#c0c0c0" stroke-width="2" d="M1286.2295,-431.8314C1298.4162,-422.8779 1313.2823,-411.9558 1326.4312,-402.2955"/>
<polygon fill="#c0c0c0" stroke="#c0c0c0" stroke-width="2" points="1328.7918,-404.9042 1334.7784,-396.1628 1324.6473,-399.263 1328.7918,-404.9042"/>
</g>
<!-- 29 -->
<g id="node30" class="node">
<title>29</title>
<path fill="none" stroke="#d87d56" stroke-width="2" d="M1523,-324C1523,-324 1438,-324 1438,-324 1432,-324 1426,-318 1426,-312 1426,-312 1426,-300 1426,-300 1426,-294 1432,-288 1438,-288 1438,-288 1523,-288 1523,-288 1529,-288 1535,-294 1535,-300 1535,-300 1535,-312 1535,-312 1535,-318 1529,-324 1523,-324"/>
<text text-anchor="middle" x="1480.5" y="-303.5" font-family="sans" font-size="10.00" fill="#000000">dedup_hg_genome</text>
</g>
<!-- 24&#45;&gt;29 -->
<g id="edge54" class="edge">
<title>24&#45;&gt;29</title>
<path fill="none" stroke="#c0c0c0" stroke-width="2" d="M1331.0705,-439.1275C1381.3722,-429.8539 1443.5205,-415.009 1461.5,-396 1476.9623,-379.6522 1481.1595,-354.0345 1481.808,-334.3041"/>
<polygon fill="#c0c0c0" stroke="#c0c0c0" stroke-width="2" points="1485.309,-334.0597 1481.8523,-324.0447 1478.3091,-334.0295 1485.309,-334.0597"/>
</g>
<!-- 25&#45;&gt;23 -->
<g id="edge42" class="edge">
<title>25&#45;&gt;23</title>
<path fill="none" stroke="#c0c0c0" stroke-width="2" d="M1409.9952,-442.4346C1352.1322,-434.5343 1276.2808,-419.8968 1257.5,-396 1208.5906,-333.7676 1263.1806,-235.6222 1294.9474,-188.7037"/>
<polygon fill="#c0c0c0" stroke="#c0c0c0" stroke-width="2" points="1297.9554,-190.5077 1300.7712,-180.2938 1292.2005,-186.5224 1297.9554,-190.5077"/>
</g>
<!-- 27 -->
<g id="node28" class="node">
<title>27</title>
<path fill="none" stroke="#bed856" stroke-width="2" d="M1682.5,-396C1682.5,-396 1520.5,-396 1520.5,-396 1514.5,-396 1508.5,-390 1508.5,-384 1508.5,-384 1508.5,-372 1508.5,-372 1508.5,-366 1514.5,-360 1520.5,-360 1520.5,-360 1682.5,-360 1682.5,-360 1688.5,-360 1694.5,-366 1694.5,-372 1694.5,-372 1694.5,-384 1694.5,-384 1694.5,-390 1688.5,-396 1682.5,-396"/>
<text text-anchor="middle" x="1601.5" y="-375.5" font-family="sans" font-size="10.00" fill="#000000">flag_sort_index_depth_hg_genome</text>
</g>
<!-- 25&#45;&gt;27 -->
<g id="edge52" class="edge">
<title>25&#45;&gt;27</title>
<path fill="none" stroke="#c0c0c0" stroke-width="2" d="M1510.2858,-431.8314C1525.8903,-422.6221 1545.024,-411.3301 1561.7303,-401.4706"/>
<polygon fill="#c0c0c0" stroke="#c0c0c0" stroke-width="2" points="1563.8909,-404.2596 1570.7241,-396.1628 1560.3331,-398.2312 1563.8909,-404.2596"/>
</g>
<!-- 31 -->
<g id="node32" class="node">
<title>31</title>
<path fill="none" stroke="#d87d56" stroke-width="2" d="M1763,-324C1763,-324 1678,-324 1678,-324 1672,-324 1666,-318 1666,-312 1666,-312 1666,-300 1666,-300 1666,-294 1672,-288 1678,-288 1678,-288 1763,-288 1763,-288 1769,-288 1775,-294 1775,-300 1775,-300 1775,-312 1775,-312 1775,-318 1769,-324 1763,-324"/>
<text text-anchor="middle" x="1720.5" y="-303.5" font-family="sans" font-size="10.00" fill="#000000">dedup_hg_genome</text>
</g>
<!-- 25&#45;&gt;31 -->
<g id="edge57" class="edge">
<title>25&#45;&gt;31</title>
<path fill="none" stroke="#c0c0c0" stroke-width="2" d="M1549.1439,-441.5357C1606.7635,-433.0809 1682.4416,-418.1356 1703.5,-396 1719.015,-379.6914 1722.5696,-353.8997 1722.6471,-334.0993"/>
<polygon fill="#c0c0c0" stroke="#c0c0c0" stroke-width="2" points="1726.146,-334.0048 1722.4012,-324.0938 1719.1481,-334.1768 1726.146,-334.0048"/>
</g>
<!-- 26&#45;&gt;23 -->
<g id="edge43" class="edge">
<title>26&#45;&gt;23</title>
<path fill="none" stroke="#c0c0c0" stroke-width="2" d="M1331.068,-359.9601C1319.2772,-350.7801 1306.8796,-338.4872 1300.5,-324 1281.1679,-280.0994 1293.6675,-223.1045 1304.2589,-189.7397"/>
<polygon fill="#c0c0c0" stroke="#c0c0c0" stroke-width="2" points="1307.6021,-190.7781 1307.4473,-180.1844 1300.962,-188.5624 1307.6021,-190.7781"/>
</g>
<!-- 26&#45;&gt;29 -->
<g id="edge55" class="edge">
<title>26&#45;&gt;29</title>
<path fill="none" stroke="#c0c0c0" stroke-width="2" d="M1390.0334,-359.8314C1405.5101,-350.6221 1424.4869,-339.3301 1441.0563,-329.4706"/>
<polygon fill="#c0c0c0" stroke="#c0c0c0" stroke-width="2" points="1443.1724,-332.2843 1449.9764,-324.1628 1439.5929,-326.2687 1443.1724,-332.2843"/>
</g>
<!-- 27&#45;&gt;23 -->
<g id="edge44" class="edge">
<title>27&#45;&gt;23</title>
<path fill="none" stroke="#c0c0c0" stroke-width="2" d="M1510.2462,-359.9564C1479.5673,-351.6533 1445.9379,-339.9918 1417.5,-324 1376.0924,-300.7148 1363.175,-292.5948 1338.5,-252 1327.0017,-233.0832 1320.9378,-208.6621 1317.7843,-190.0327"/>
<polygon fill="#c0c0c0" stroke="#c0c0c0" stroke-width="2" points="1321.236,-189.4495 1316.2802,-180.0852 1314.3147,-190.4961 1321.236,-189.4495"/>
</g>
<!-- 27&#45;&gt;31 -->
<g id="edge58" class="edge">
<title>27&#45;&gt;31</title>
<path fill="none" stroke="#c0c0c0" stroke-width="2" d="M1631.5287,-359.8314C1646.7496,-350.6221 1665.4128,-339.3301 1681.7083,-329.4706"/>
<polygon fill="#c0c0c0" stroke="#c0c0c0" stroke-width="2" points="1683.7369,-332.3341 1690.4809,-324.1628 1680.1132,-326.345 1683.7369,-332.3341"/>
</g>
<!-- 28 -->
<g id="node29" class="node">
<title>28</title>
<path fill="none" stroke="#88d856" stroke-width="2" d="M1590,-252C1590,-252 1393,-252 1393,-252 1387,-252 1381,-246 1381,-240 1381,-240 1381,-228 1381,-228 1381,-222 1387,-216 1393,-216 1393,-216 1590,-216 1590,-216 1596,-216 1602,-222 1602,-228 1602,-228 1602,-240 1602,-240 1602,-246 1596,-252 1590,-252"/>
<text text-anchor="middle" x="1491.5" y="-231.5" font-family="sans" font-size="10.00" fill="#000000">flag_sort_index_depth_hg_genome_dedup</text>
</g>
<!-- 28&#45;&gt;23 -->
<g id="edge45" class="edge">
<title>28&#45;&gt;23</title>
<path fill="none" stroke="#c0c0c0" stroke-width="2" d="M1446.8354,-215.8314C1422.9523,-206.1162 1393.371,-194.0831 1368.2372,-183.8592"/>
<polygon fill="#c0c0c0" stroke="#c0c0c0" stroke-width="2" points="1369.4252,-180.564 1358.8434,-180.038 1366.7875,-187.0481 1369.4252,-180.564"/>
</g>
<!-- 36 -->
<g id="node37" class="node">
<title>36</title>
<path fill="none" stroke="#56a2d8" stroke-width="2" d="M1632.5,-180C1632.5,-180 1478.5,-180 1478.5,-180 1472.5,-180 1466.5,-174 1466.5,-168 1466.5,-168 1466.5,-156 1466.5,-156 1466.5,-150 1472.5,-144 1478.5,-144 1478.5,-144 1632.5,-144 1632.5,-144 1638.5,-144 1644.5,-150 1644.5,-156 1644.5,-156 1644.5,-168 1644.5,-168 1644.5,-174 1638.5,-180 1632.5,-180"/>
<text text-anchor="middle" x="1555.5" y="-159.5" font-family="sans" font-size="10.00" fill="#000000">convert_bam_to_tsv_hg_genome</text>
</g>
<!-- 28&#45;&gt;36 -->
<g id="edge68" class="edge">
<title>28&#45;&gt;36</title>
<path fill="none" stroke="#c0c0c0" stroke-width="2" d="M1507.6499,-215.8314C1515.1717,-207.3694 1524.2565,-197.1489 1532.4804,-187.8971"/>
<polygon fill="#c0c0c0" stroke="#c0c0c0" stroke-width="2" points="1535.1049,-190.2127 1539.1327,-180.4133 1529.873,-185.5621 1535.1049,-190.2127"/>
</g>
<!-- 29&#45;&gt;23 -->
<g id="edge47" class="edge">
<title>29&#45;&gt;23</title>
<path fill="none" stroke="#c0c0c0" stroke-width="2" d="M1430.8479,-287.8787C1411.2113,-279.0873 1389.3559,-267.1148 1372.5,-252 1352.8761,-234.4032 1337.197,-208.688 1327.1133,-189.2466"/>
<polygon fill="#c0c0c0" stroke="#c0c0c0" stroke-width="2" points="1330.2258,-187.6453 1322.6198,-180.2697 1323.9662,-190.7786 1330.2258,-187.6453"/>
</g>
<!-- 29&#45;&gt;28 -->
<g id="edge53" class="edge">
<title>29&#45;&gt;28</title>
<path fill="none" stroke="#c0c0c0" stroke-width="2" d="M1483.2758,-287.8314C1484.4522,-280.131 1485.8511,-270.9743 1487.1586,-262.4166"/>
<polygon fill="#c0c0c0" stroke="#c0c0c0" stroke-width="2" points="1490.6364,-262.8272 1488.6869,-252.4133 1483.7167,-261.7699 1490.6364,-262.8272"/>
</g>
<!-- 29&#45;&gt;36 -->
<g id="edge67" class="edge">
<title>29&#45;&gt;36</title>
<path fill="none" stroke="#c0c0c0" stroke-width="2" d="M1535.1999,-298.0388C1563.0138,-290.9181 1594.4631,-277.4504 1611.5,-252 1620.4005,-238.7041 1617.757,-230.7258 1611.5,-216 1606.8021,-204.9437 1598.6086,-195.0516 1589.9157,-186.8494"/>
<polygon fill="#c0c0c0" stroke="#c0c0c0" stroke-width="2" points="1592.0453,-184.0614 1582.2231,-180.0896 1587.4246,-189.3197 1592.0453,-184.0614"/>
</g>
<!-- 30 -->
<g id="node31" class="node">
<title>30</title>
<path fill="none" stroke="#88d856" stroke-width="2" d="M1906,-252C1906,-252 1709,-252 1709,-252 1703,-252 1697,-246 1697,-240 1697,-240 1697,-228 1697,-228 1697,-222 1703,-216 1709,-216 1709,-216 1906,-216 1906,-216 1912,-216 1918,-222 1918,-228 1918,-228 1918,-240 1918,-240 1918,-246 1912,-252 1906,-252"/>
<text text-anchor="middle" x="1807.5" y="-231.5" font-family="sans" font-size="10.00" fill="#000000">flag_sort_index_depth_hg_genome_dedup</text>
</g>
<!-- 30&#45;&gt;23 -->
<g id="edge46" class="edge">
<title>30&#45;&gt;23</title>
<path fill="none" stroke="#c0c0c0" stroke-width="2" d="M1696.8612,-217.8418C1608.0179,-204.8667 1484.9324,-186.8907 1402.6557,-174.8747"/>
<polygon fill="#c0c0c0" stroke="#c0c0c0" stroke-width="2" points="1402.9799,-171.385 1392.579,-173.403 1401.9683,-178.3115 1402.9799,-171.385"/>
</g>
<!-- 37 -->
<g id="node38" class="node">
<title>37</title>
<path fill="none" stroke="#56a2d8" stroke-width="2" d="M1884.5,-180C1884.5,-180 1730.5,-180 1730.5,-180 1724.5,-180 1718.5,-174 1718.5,-168 1718.5,-168 1718.5,-156 1718.5,-156 1718.5,-150 1724.5,-144 1730.5,-144 1730.5,-144 1884.5,-144 1884.5,-144 1890.5,-144 1896.5,-150 1896.5,-156 1896.5,-156 1896.5,-168 1896.5,-168 1896.5,-174 1890.5,-180 1884.5,-180"/>
<text text-anchor="middle" x="1807.5" y="-159.5" font-family="sans" font-size="10.00" fill="#000000">convert_bam_to_tsv_hg_genome</text>
</g>
<!-- 30&#45;&gt;37 -->
<g id="edge70" class="edge">
<title>30&#45;&gt;37</title>
<path fill="none" stroke="#c0c0c0" stroke-width="2" d="M1807.5,-215.8314C1807.5,-208.131 1807.5,-198.9743 1807.5,-190.4166"/>
<polygon fill="#c0c0c0" stroke="#c0c0c0" stroke-width="2" points="1811.0001,-190.4132 1807.5,-180.4133 1804.0001,-190.4133 1811.0001,-190.4132"/>
</g>
<!-- 31&#45;&gt;23 -->
<g id="edge48" class="edge">
<title>31&#45;&gt;23</title>
<path fill="none" stroke="#c0c0c0" stroke-width="2" d="M1704.3214,-287.9377C1684.5664,-267.1026 1649.1107,-233.4786 1611.5,-216 1575.2436,-199.1507 1476.7082,-183.2044 1403.0077,-173.0697"/>
<polygon fill="#c0c0c0" stroke="#c0c0c0" stroke-width="2" points="1403.1626,-169.5586 1392.7821,-171.6787 1402.2191,-176.4947 1403.1626,-169.5586"/>
</g>
<!-- 31&#45;&gt;30 -->
<g id="edge56" class="edge">
<title>31&#45;&gt;30</title>
<path fill="none" stroke="#c0c0c0" stroke-width="2" d="M1742.4538,-287.8314C1753.1695,-278.9632 1766.2189,-268.1637 1777.809,-258.5718"/>
<polygon fill="#c0c0c0" stroke="#c0c0c0" stroke-width="2" points="1780.0808,-261.2349 1785.5533,-252.1628 1775.6178,-255.8422 1780.0808,-261.2349"/>
</g>
<!-- 31&#45;&gt;37 -->
<g id="edge69" class="edge">
<title>31&#45;&gt;37</title>
<path fill="none" stroke="#c0c0c0" stroke-width="2" d="M1775.2855,-290.4845C1778.4006,-289.6357 1781.4887,-288.8024 1784.5,-288 1847.8292,-271.1263 1887.2092,-303.691 1927.5,-252 1937.3362,-239.3806 1936.1875,-229.436 1927.5,-216 1918.7171,-202.4164 1905.6129,-192.2159 1891.2496,-184.5662"/>
<polygon fill="#c0c0c0" stroke="#c0c0c0" stroke-width="2" points="1892.692,-181.3755 1882.1712,-180.1254 1889.6161,-187.6635 1892.692,-181.3755"/>
</g>
<!-- 32 -->
<g id="node33" class="node">
<title>32</title>
<path fill="none" stroke="#56c9d8" stroke-width="2" d="M847,-108C847,-108 716,-108 716,-108 710,-108 704,-102 704,-96 704,-96 704,-84 704,-84 704,-78 710,-72 716,-72 716,-72 847,-72 847,-72 853,-72 859,-78 859,-84 859,-84 859,-96 859,-96 859,-102 853,-108 847,-108"/>
<text text-anchor="middle" x="781.5" y="-87.5" font-family="sans" font-size="10.00" fill="#000000">collapse_sites_mm_genome</text>
</g>
<!-- 32&#45;&gt;0 -->
<g id="edge6" class="edge">
<title>32&#45;&gt;0</title>
<path fill="none" stroke="#c0c0c0" stroke-width="2" d="M766.8642,-71.8314C760.1839,-63.5386 752.1432,-53.557 744.8096,-44.4533"/>
<polygon fill="#c0c0c0" stroke="#c0c0c0" stroke-width="2" points="747.3319,-42.0052 738.3329,-36.4133 741.8806,-46.3965 747.3319,-42.0052"/>
</g>
<!-- 33&#45;&gt;32 -->
<g id="edge59" class="edge">
<title>33&#45;&gt;32</title>
<path fill="none" stroke="#c0c0c0" stroke-width="2" d="M781.5,-143.8314C781.5,-136.131 781.5,-126.9743 781.5,-118.4166"/>
<polygon fill="#c0c0c0" stroke="#c0c0c0" stroke-width="2" points="785.0001,-118.4132 781.5,-108.4133 778.0001,-118.4133 785.0001,-118.4132"/>
</g>
<!-- 34&#45;&gt;32 -->
<g id="edge60" class="edge">
<title>34&#45;&gt;32</title>
<path fill="none" stroke="#c0c0c0" stroke-width="2" d="M959.7498,-143.9243C926.7894,-133.9531 885.6872,-121.5188 851.2605,-111.104"/>
<polygon fill="#c0c0c0" stroke="#c0c0c0" stroke-width="2" points="851.8599,-107.6288 841.2748,-108.0831 849.8329,-114.3289 851.8599,-107.6288"/>
</g>
<!-- 35 -->
<g id="node36" class="node">
<title>35</title>
<path fill="none" stroke="#5692d8" stroke-width="2" d="M1617.5,-108C1617.5,-108 1493.5,-108 1493.5,-108 1487.5,-108 1481.5,-102 1481.5,-96 1481.5,-96 1481.5,-84 1481.5,-84 1481.5,-78 1487.5,-72 1493.5,-72 1493.5,-72 1617.5,-72 1617.5,-72 1623.5,-72 1629.5,-78 1629.5,-84 1629.5,-84 1629.5,-96 1629.5,-96 1629.5,-102 1623.5,-108 1617.5,-108"/>
<text text-anchor="middle" x="1555.5" y="-87.5" font-family="sans" font-size="10.00" fill="#000000">collapse_sites_hg_genome</text>
</g>
<!-- 35&#45;&gt;0 -->
<g id="edge7" class="edge">
<title>35&#45;&gt;0</title>
<path fill="none" stroke="#c0c0c0" stroke-width="2" d="M1481.2998,-83.5788C1309.2992,-68.6942 888.318,-32.2631 760.7441,-21.223"/>
<polygon fill="#c0c0c0" stroke="#c0c0c0" stroke-width="2" points="760.9571,-17.7285 750.6925,-20.3532 760.3535,-24.7024 760.9571,-17.7285"/>
</g>
<!-- 36&#45;&gt;35 -->
<g id="edge65" class="edge">
<title>36&#45;&gt;35</title>
<path fill="none" stroke="#c0c0c0" stroke-width="2" d="M1555.5,-143.8314C1555.5,-136.131 1555.5,-126.9743 1555.5,-118.4166"/>
<polygon fill="#c0c0c0" stroke="#c0c0c0" stroke-width="2" points="1559.0001,-118.4132 1555.5,-108.4133 1552.0001,-118.4133 1559.0001,-118.4132"/>
</g>
<!-- 37&#45;&gt;35 -->
<g id="edge66" class="edge">
<title>37&#45;&gt;35</title>
<path fill="none" stroke="#c0c0c0" stroke-width="2" d="M1744.235,-143.9243C1709.0363,-133.8675 1665.0681,-121.3052 1628.4269,-110.8363"/>
<polygon fill="#c0c0c0" stroke="#c0c0c0" stroke-width="2" points="1629.3678,-107.4651 1618.791,-108.0831 1627.4447,-114.1958 1629.3678,-107.4651"/>
</g>
<!-- 38 -->
<g id="node39" class="node">
<title>38</title>
<path fill="none" stroke="#d8b456" stroke-width="2" d="M2088,-252C2088,-252 1987,-252 1987,-252 1981,-252 1975,-246 1975,-240 1975,-240 1975,-228 1975,-228 1975,-222 1981,-216 1987,-216 1987,-216 2088,-216 2088,-216 2094,-216 2100,-222 2100,-228 2100,-228 2100,-240 2100,-240 2100,-246 2094,-252 2088,-252"/>
<text text-anchor="middle" x="2037.5" y="-231.5" font-family="sans" font-size="10.00" fill="#000000">collapse_sites_spikein</text>
</g>
<!-- 38&#45;&gt;0 -->
<g id="edge8" class="edge">
<title>38&#45;&gt;0</title>
<path fill="none" stroke="#c0c0c0" stroke-width="2" d="M2015.9907,-215.9453C1990.9356,-195.7524 1947.5857,-163.3477 1905.5,-144 1793.8296,-92.6628 1759.8127,-91.7234 1638.5,-72 1464.9811,-43.7888 909.3994,-24.0498 760.5069,-19.1732"/>
<polygon fill="#c0c0c0" stroke="#c0c0c0" stroke-width="2" points="760.6088,-15.6748 750.5003,-18.8479 760.3812,-22.6711 760.6088,-15.6748"/>
</g>
<!-- 39 -->
<g id="node40" class="node">
<title>39</title>
<path fill="none" stroke="#56d8a9" stroke-width="2" d="M1936,-324C1936,-324 1805,-324 1805,-324 1799,-324 1793,-318 1793,-312 1793,-312 1793,-300 1793,-300 1793,-294 1799,-288 1805,-288 1805,-288 1936,-288 1936,-288 1942,-288 1948,-294 1948,-300 1948,-300 1948,-312 1948,-312 1948,-318 1942,-324 1936,-324"/>
<text text-anchor="middle" x="1870.5" y="-303.5" font-family="sans" font-size="10.00" fill="#000000">convert_bam_to_tsv_spikein</text>
</g>
<!-- 39&#45;&gt;38 -->
<g id="edge71" class="edge">
<title>39&#45;&gt;38</title>
<path fill="none" stroke="#c0c0c0" stroke-width="2" d="M1912.6412,-287.8314C1934.9764,-278.2018 1962.5936,-266.295 1986.171,-256.1299"/>
<polygon fill="#c0c0c0" stroke="#c0c0c0" stroke-width="2" points="1987.8647,-259.2112 1995.6619,-252.038 1985.0933,-252.7831 1987.8647,-259.2112"/>
</g>
<!-- 40&#45;&gt;39 -->
<g id="edge73" class="edge">
<title>40&#45;&gt;39</title>
<path fill="none" stroke="#c0c0c0" stroke-width="2" d="M1760.1883,-431.7327C1760.7398,-412.2384 1764.2477,-381.2902 1779.5,-360 1788.6273,-347.2594 1801.7774,-337.0134 1815.2555,-329.0143"/>
<polygon fill="#c0c0c0" stroke="#c0c0c0" stroke-width="2" points="1817.0862,-332.001 1824.1208,-324.0785 1813.6811,-325.8849 1817.0862,-332.001"/>
</g>
<!-- 41 -->
<g id="node42" class="node">
<title>41</title>
<path fill="none" stroke="#d86656" stroke-width="2" d="M1940.5,-396C1940.5,-396 1800.5,-396 1800.5,-396 1794.5,-396 1788.5,-390 1788.5,-384 1788.5,-384 1788.5,-372 1788.5,-372 1788.5,-366 1794.5,-360 1800.5,-360 1800.5,-360 1940.5,-360 1940.5,-360 1946.5,-360 1952.5,-366 1952.5,-372 1952.5,-372 1952.5,-384 1952.5,-384 1952.5,-390 1946.5,-396 1940.5,-396"/>
<text text-anchor="middle" x="1870.5" y="-375.5" font-family="sans" font-size="10.00" fill="#000000">flag_sort_index_depth_spikein</text>
</g>
<!-- 40&#45;&gt;41 -->
<g id="edge76" class="edge">
<title>40&#45;&gt;41</title>
<path fill="none" stroke="#c0c0c0" stroke-width="2" d="M1788.2576,-431.8314C1802.197,-422.7074 1819.2598,-411.539 1834.2231,-401.7449"/>
<polygon fill="#c0c0c0" stroke="#c0c0c0" stroke-width="2" points="1836.301,-404.5679 1842.7512,-396.1628 1832.4674,-398.711 1836.301,-404.5679"/>
</g>
<!-- 41&#45;&gt;39 -->
<g id="edge74" class="edge">
<title>41&#45;&gt;39</title>
<path fill="none" stroke="#c0c0c0" stroke-width="2" d="M1870.5,-359.8314C1870.5,-352.131 1870.5,-342.9743 1870.5,-334.4166"/>
<polygon fill="#c0c0c0" stroke="#c0c0c0" stroke-width="2" points="1874.0001,-334.4132 1870.5,-324.4133 1867.0001,-334.4133 1874.0001,-334.4132"/>
</g>
<!-- 42 -->
<g id="node43" class="node">
<title>42</title>
<path fill="none" stroke="#56d8a9" stroke-width="2" d="M2109,-324C2109,-324 1978,-324 1978,-324 1972,-324 1966,-318 1966,-312 1966,-312 1966,-300 1966,-300 1966,-294 1972,-288 1978,-288 1978,-288 2109,-288 2109,-288 2115,-288 2121,-294 2121,-300 2121,-300 2121,-312 2121,-312 2121,-318 2115,-324 2109,-324"/>
<text text-anchor="middle" x="2043.5" y="-303.5" font-family="sans" font-size="10.00" fill="#000000">convert_bam_to_tsv_spikein</text>
</g>
<!-- 42&#45;&gt;38 -->
<g id="edge72" class="edge">
<title>42&#45;&gt;38</title>
<path fill="none" stroke="#c0c0c0" stroke-width="2" d="M2041.9859,-287.8314C2041.3442,-280.131 2040.5812,-270.9743 2039.8681,-262.4166"/>
<polygon fill="#c0c0c0" stroke="#c0c0c0" stroke-width="2" points="2043.3529,-262.088 2039.0344,-252.4133 2036.3771,-262.6694 2043.3529,-262.088"/>
</g>
<!-- 43&#45;&gt;42 -->
<g id="edge77" class="edge">
<title>43&#45;&gt;42</title>
<path fill="none" stroke="#c0c0c0" stroke-width="2" d="M1981.7912,-431.949C1983.6982,-413.1817 1988.3433,-383.3411 1999.5,-360 2004.2426,-350.078 2011.1679,-340.3911 2018.1268,-332.0243"/>
<polygon fill="#c0c0c0" stroke="#c0c0c0" stroke-width="2" points="2020.8041,-334.2795 2024.7389,-324.4424 2015.5284,-329.6787 2020.8041,-334.2795"/>
</g>
<!-- 44 -->
<g id="node45" class="node">
<title>44</title>
<path fill="none" stroke="#d86656" stroke-width="2" d="M2160.5,-396C2160.5,-396 2020.5,-396 2020.5,-396 2014.5,-396 2008.5,-390 2008.5,-384 2008.5,-384 2008.5,-372 2008.5,-372 2008.5,-366 2014.5,-360 2020.5,-360 2020.5,-360 2160.5,-360 2160.5,-360 2166.5,-360 2172.5,-366 2172.5,-372 2172.5,-372 2172.5,-384 2172.5,-384 2172.5,-390 2166.5,-396 2160.5,-396"/>
<text text-anchor="middle" x="2090.5" y="-375.5" font-family="sans" font-size="10.00" fill="#000000">flag_sort_index_depth_spikein</text>
</g>
<!-- 43&#45;&gt;44 -->
<g id="edge80" class="edge">
<title>43&#45;&gt;44</title>
<path fill="none" stroke="#c0c0c0" stroke-width="2" d="M2008.2576,-431.8314C2022.197,-422.7074 2039.2598,-411.539 2054.2231,-401.7449"/>
<polygon fill="#c0c0c0" stroke="#c0c0c0" stroke-width="2" points="2056.301,-404.5679 2062.7512,-396.1628 2052.4674,-398.711 2056.301,-404.5679"/>
</g>
<!-- 44&#45;&gt;42 -->
<g id="edge78" class="edge">
<title>44&#45;&gt;42</title>
<path fill="none" stroke="#c0c0c0" stroke-width="2" d="M2078.6399,-359.8314C2073.3371,-351.7079 2066.9763,-341.9637 2061.1327,-333.0118"/>
<polygon fill="#c0c0c0" stroke="#c0c0c0" stroke-width="2" points="2063.9169,-330.8739 2055.5198,-324.4133 2058.0552,-334.7003 2063.9169,-330.8739"/>
</g>
</g>
</svg>
