<?xml version="1.0" encoding="UTF-8" standalone="no"?>
<!DOCTYPE svg PUBLIC "-//W3C//DTD SVG 1.1//EN"
 "http://www.w3.org/Graphics/SVG/1.1/DTD/svg11.dtd">
<!-- Generated by graphviz version 2.40.1 (0)
 -->
<!-- Title: snakemake_dag Pages: 1 -->
<svg width="1863pt" height="620pt"
 viewBox="0.00 0.00 1863.00 620.00" xmlns="http://www.w3.org/2000/svg" xmlns:xlink="http://www.w3.org/1999/xlink">
<g id="graph0" class="graph" transform="scale(1 1) rotate(0) translate(4 616)">
<title>snakemake_dag</title>
<polygon fill="#ffffff" stroke="transparent" points="-4,4 -4,-616 1859,-616 1859,4 -4,4"/>
<!-- 0 -->
<g id="node1" class="node">
<title>0</title>
<path fill="none" stroke="#78d856" stroke-width="2" d="M849.5,-36C849.5,-36 819.5,-36 819.5,-36 813.5,-36 807.5,-30 807.5,-24 807.5,-24 807.5,-12 807.5,-12 807.5,-6 813.5,0 819.5,0 819.5,0 849.5,0 849.5,0 855.5,0 861.5,-6 861.5,-12 861.5,-12 861.5,-24 861.5,-24 861.5,-30 855.5,-36 849.5,-36"/>
<text text-anchor="middle" x="834.5" y="-15.5" font-family="sans" font-size="10.00" fill="#000000">all</text>
</g>
<!-- 1 -->
<g id="node2" class="node">
<title>1</title>
<path fill="none" stroke="#56d863" stroke-width="2" d="M204.5,-108C204.5,-108 116.5,-108 116.5,-108 110.5,-108 104.5,-102 104.5,-96 104.5,-96 104.5,-84 104.5,-84 104.5,-78 110.5,-72 116.5,-72 116.5,-72 204.5,-72 204.5,-72 210.5,-72 216.5,-78 216.5,-84 216.5,-84 216.5,-96 216.5,-96 216.5,-102 210.5,-108 204.5,-108"/>
<text text-anchor="middle" x="160.5" y="-87.5" font-family="sans" font-size="10.00" fill="#000000">report_falco_before</text>
</g>
<!-- 1&#45;&gt;0 -->
<g id="edge1" class="edge">
<title>1&#45;&gt;0</title>
<path fill="none" stroke="#c0c0c0" stroke-width="2" d="M216.5203,-74.922C221.564,-73.8303 226.6111,-72.8332 231.5,-72 443.506,-35.8691 701.8304,-22.9979 796.9931,-19.2864"/>
<polygon fill="#c0c0c0" stroke="#c0c0c0" stroke-width="2" points="797.3964,-22.7738 807.2566,-18.8973 797.1312,-15.7788 797.3964,-22.7738"/>
</g>
<!-- 2 -->
<g id="node3" class="node">
<title>2</title>
<path fill="none" stroke="#b6d856" stroke-width="2" d="M196,-180C196,-180 125,-180 125,-180 119,-180 113,-174 113,-168 113,-168 113,-156 113,-156 113,-150 119,-144 125,-144 125,-144 196,-144 196,-144 202,-144 208,-150 208,-156 208,-156 208,-168 208,-168 208,-174 202,-180 196,-180"/>
<text text-anchor="middle" x="160.5" y="-165" font-family="sans" font-size="10.00" fill="#000000">falco_before_PE</text>
<text text-anchor="middle" x="160.5" y="-154" font-family="sans" font-size="10.00" fill="#000000">sample: DME</text>
</g>
<!-- 2&#45;&gt;1 -->
<g id="edge13" class="edge">
<title>2&#45;&gt;1</title>
<path fill="none" stroke="#c0c0c0" stroke-width="2" d="M160.5,-143.8314C160.5,-136.131 160.5,-126.9743 160.5,-118.4166"/>
<polygon fill="#c0c0c0" stroke="#c0c0c0" stroke-width="2" points="164.0001,-118.4132 160.5,-108.4133 157.0001,-118.4133 164.0001,-118.4132"/>
</g>
<!-- 3 -->
<g id="node4" class="node">
<title>3</title>
<path fill="none" stroke="#b6d856" stroke-width="2" d="M83,-180C83,-180 12,-180 12,-180 6,-180 0,-174 0,-168 0,-168 0,-156 0,-156 0,-150 6,-144 12,-144 12,-144 83,-144 83,-144 89,-144 95,-150 95,-156 95,-156 95,-168 95,-168 95,-174 89,-180 83,-180"/>
<text text-anchor="middle" x="47.5" y="-165" font-family="sans" font-size="10.00" fill="#000000">falco_before_PE</text>
<text text-anchor="middle" x="47.5" y="-154" font-family="sans" font-size="10.00" fill="#000000">sample: Input</text>
</g>
<!-- 3&#45;&gt;1 -->
<g id="edge14" class="edge">
<title>3&#45;&gt;1</title>
<path fill="none" stroke="#c0c0c0" stroke-width="2" d="M76.0147,-143.8314C90.3342,-134.7074 107.8624,-123.539 123.2338,-113.7449"/>
<polygon fill="#c0c0c0" stroke="#c0c0c0" stroke-width="2" points="125.4417,-116.4882 131.9945,-108.1628 121.6801,-110.5847 125.4417,-116.4882"/>
</g>
<!-- 4 -->
<g id="node5" class="node">
<title>4</title>
<path fill="none" stroke="#56d8b1" stroke-width="2" d="M936,-540C936,-540 849,-540 849,-540 843,-540 837,-534 837,-528 837,-528 837,-516 837,-516 837,-510 843,-504 849,-504 849,-504 936,-504 936,-504 942,-504 948,-510 948,-516 948,-516 948,-528 948,-528 948,-534 942,-540 936,-540"/>
<text text-anchor="middle" x="892.5" y="-519.5" font-family="sans" font-size="10.00" fill="#000000">report_cutadapt_PE</text>
</g>
<!-- 4&#45;&gt;0 -->
<g id="edge2" class="edge">
<title>4&#45;&gt;0</title>
<path fill="none" stroke="#c0c0c0" stroke-width="2" d="M866.9237,-503.8801C855.0577,-494.3602 841.599,-481.8084 832.5,-468 790.6626,-404.5086 777.5,-382.0364 777.5,-306 777.5,-306 777.5,-306 777.5,-162 777.5,-118.7597 799.9945,-73.0187 816.7212,-44.9832"/>
<polygon fill="#c0c0c0" stroke="#c0c0c0" stroke-width="2" points="819.8756,-46.5353 822.1318,-36.1834 813.9126,-42.8688 819.8756,-46.5353"/>
</g>
<!-- 5 -->
<g id="node6" class="node">
<title>5</title>
<path fill="none" stroke="#56d0d8" stroke-width="2" d="M1090,-612C1090,-612 1033,-612 1033,-612 1027,-612 1021,-606 1021,-600 1021,-600 1021,-588 1021,-588 1021,-582 1027,-576 1033,-576 1033,-576 1090,-576 1090,-576 1096,-576 1102,-582 1102,-588 1102,-588 1102,-600 1102,-600 1102,-606 1096,-612 1090,-612"/>
<text text-anchor="middle" x="1061.5" y="-597" font-family="sans" font-size="10.00" fill="#000000">cutadapt_PE</text>
<text text-anchor="middle" x="1061.5" y="-586" font-family="sans" font-size="10.00" fill="#000000">sample: DME</text>
</g>
<!-- 5&#45;&gt;4 -->
<g id="edge15" class="edge">
<title>5&#45;&gt;4</title>
<path fill="none" stroke="#c0c0c0" stroke-width="2" d="M1020.5898,-576.5708C997.65,-566.7976 968.8081,-554.5099 944.3035,-544.0701"/>
<polygon fill="#c0c0c0" stroke="#c0c0c0" stroke-width="2" points="945.3701,-540.7202 934.7983,-540.0206 942.6264,-547.1601 945.3701,-540.7202"/>
</g>
<!-- 8 -->
<g id="node9" class="node">
<title>8</title>
<path fill="none" stroke="#d86e56" stroke-width="2" d="M1665.5,-540C1665.5,-540 1603.5,-540 1603.5,-540 1597.5,-540 1591.5,-534 1591.5,-528 1591.5,-528 1591.5,-516 1591.5,-516 1591.5,-510 1597.5,-504 1603.5,-504 1603.5,-504 1665.5,-504 1665.5,-504 1671.5,-504 1677.5,-510 1677.5,-516 1677.5,-516 1677.5,-528 1677.5,-528 1677.5,-534 1671.5,-540 1665.5,-540"/>
<text text-anchor="middle" x="1634.5" y="-519.5" font-family="sans" font-size="10.00" fill="#000000">falco_after_PE</text>
</g>
<!-- 5&#45;&gt;8 -->
<g id="edge19" class="edge">
<title>5&#45;&gt;8</title>
<path fill="none" stroke="#c0c0c0" stroke-width="2" d="M1102.0626,-583.4813C1113.7602,-580.7303 1126.5829,-577.9835 1138.5,-576 1296.2435,-549.7445 1337.642,-558.3435 1496.5,-540 1524.4513,-536.7724 1555.5296,-532.7565 1581.1058,-529.3373"/>
<polygon fill="#c0c0c0" stroke="#c0c0c0" stroke-width="2" points="1581.8967,-532.7625 1591.3414,-527.9616 1580.9642,-525.8249 1581.8967,-532.7625"/>
</g>
<!-- 11 -->
<g id="node12" class="node">
<title>11</title>
<path fill="none" stroke="#56c1d8" stroke-width="2" d="M1249.5,-540C1249.5,-540 1157.5,-540 1157.5,-540 1151.5,-540 1145.5,-534 1145.5,-528 1145.5,-528 1145.5,-516 1145.5,-516 1145.5,-510 1151.5,-504 1157.5,-504 1157.5,-504 1249.5,-504 1249.5,-504 1255.5,-504 1261.5,-510 1261.5,-516 1261.5,-516 1261.5,-528 1261.5,-528 1261.5,-534 1255.5,-540 1249.5,-540"/>
<text text-anchor="middle" x="1203.5" y="-519.5" font-family="sans" font-size="10.00" fill="#000000">mapping_spikein_PE</text>
</g>
<!-- 5&#45;&gt;11 -->
<g id="edge25" class="edge">
<title>5&#45;&gt;11</title>
<path fill="none" stroke="#c0c0c0" stroke-width="2" d="M1097.3326,-575.8314C1115.9157,-566.4089 1138.7989,-554.8062 1158.5565,-544.7883"/>
<polygon fill="#c0c0c0" stroke="#c0c0c0" stroke-width="2" points="1160.3427,-547.8069 1167.6789,-540.1628 1157.177,-541.5635 1160.3427,-547.8069"/>
</g>
<!-- 16 -->
<g id="node17" class="node">
<title>16</title>
<path fill="none" stroke="#9fd856" stroke-width="2" d="M746,-540C746,-540 609,-540 609,-540 603,-540 597,-534 597,-528 597,-528 597,-516 597,-516 597,-510 603,-504 609,-504 609,-504 746,-504 746,-504 752,-504 758,-510 758,-516 758,-516 758,-528 758,-528 758,-534 752,-540 746,-540"/>
<text text-anchor="middle" x="677.5" y="-519.5" font-family="sans" font-size="10.00" fill="#000000">mapping_human_genome_PE</text>
</g>
<!-- 5&#45;&gt;16 -->
<g id="edge33" class="edge">
<title>5&#45;&gt;16</title>
<path fill="none" stroke="#c0c0c0" stroke-width="2" d="M1020.7688,-586.3629C961.0726,-575.1699 848.2453,-554.0147 768.256,-539.0167"/>
<polygon fill="#c0c0c0" stroke="#c0c0c0" stroke-width="2" points="768.6533,-535.5303 758.1795,-537.1274 767.3632,-542.4104 768.6533,-535.5303"/>
</g>
<!-- 6 -->
<g id="node7" class="node">
<title>6</title>
<path fill="none" stroke="#56d0d8" stroke-width="2" d="M1218,-612C1218,-612 1159,-612 1159,-612 1153,-612 1147,-606 1147,-600 1147,-600 1147,-588 1147,-588 1147,-582 1153,-576 1159,-576 1159,-576 1218,-576 1218,-576 1224,-576 1230,-582 1230,-588 1230,-588 1230,-600 1230,-600 1230,-606 1224,-612 1218,-612"/>
<text text-anchor="middle" x="1188.5" y="-597" font-family="sans" font-size="10.00" fill="#000000">cutadapt_PE</text>
<text text-anchor="middle" x="1188.5" y="-586" font-family="sans" font-size="10.00" fill="#000000">sample: Input</text>
</g>
<!-- 6&#45;&gt;4 -->
<g id="edge16" class="edge">
<title>6&#45;&gt;4</title>
<path fill="none" stroke="#c0c0c0" stroke-width="2" d="M1146.7962,-584.2538C1089.491,-570.8613 990.4863,-547.722 958.0832,-539.9829"/>
<polygon fill="#c0c0c0" stroke="#c0c0c0" stroke-width="2" points="958.6733,-536.5246 948.1297,-537.5646 957.0207,-543.3267 958.6733,-536.5246"/>
</g>
<!-- 9 -->
<g id="node10" class="node">
<title>9</title>
<path fill="none" stroke="#d86e56" stroke-width="2" d="M1812.5,-540C1812.5,-540 1750.5,-540 1750.5,-540 1744.5,-540 1738.5,-534 1738.5,-528 1738.5,-528 1738.5,-516 1738.5,-516 1738.5,-510 1744.5,-504 1750.5,-504 1750.5,-504 1812.5,-504 1812.5,-504 1818.5,-504 1824.5,-510 1824.5,-516 1824.5,-516 1824.5,-528 1824.5,-528 1824.5,-534 1818.5,-540 1812.5,-540"/>
<text text-anchor="middle" x="1781.5" y="-519.5" font-family="sans" font-size="10.00" fill="#000000">falco_after_PE</text>
</g>
<!-- 6&#45;&gt;9 -->
<g id="edge20" class="edge">
<title>6&#45;&gt;9</title>
<path fill="none" stroke="#c0c0c0" stroke-width="2" d="M1230.2888,-590.5958C1316.0676,-583.36 1518.1176,-565.041 1686.5,-540 1699.9959,-537.993 1714.4986,-535.4459 1728.0083,-532.9039"/>
<polygon fill="#c0c0c0" stroke="#c0c0c0" stroke-width="2" points="1728.9488,-536.2876 1738.1126,-530.9702 1727.633,-529.4123 1728.9488,-536.2876"/>
</g>
<!-- 12 -->
<g id="node13" class="node">
<title>12</title>
<path fill="none" stroke="#56c1d8" stroke-width="2" d="M1475.5,-540C1475.5,-540 1383.5,-540 1383.5,-540 1377.5,-540 1371.5,-534 1371.5,-528 1371.5,-528 1371.5,-516 1371.5,-516 1371.5,-510 1377.5,-504 1383.5,-504 1383.5,-504 1475.5,-504 1475.5,-504 1481.5,-504 1487.5,-510 1487.5,-516 1487.5,-516 1487.5,-528 1487.5,-528 1487.5,-534 1481.5,-540 1475.5,-540"/>
<text text-anchor="middle" x="1429.5" y="-519.5" font-family="sans" font-size="10.00" fill="#000000">mapping_spikein_PE</text>
</g>
<!-- 6&#45;&gt;12 -->
<g id="edge26" class="edge">
<title>6&#45;&gt;12</title>
<path fill="none" stroke="#c0c0c0" stroke-width="2" d="M1230.2039,-581.5408C1266.3247,-570.7495 1319.2668,-554.9327 1361.5076,-542.3131"/>
<polygon fill="#c0c0c0" stroke="#c0c0c0" stroke-width="2" points="1362.5912,-545.6423 1371.1708,-539.4261 1360.5874,-538.9352 1362.5912,-545.6423"/>
</g>
<!-- 17 -->
<g id="node18" class="node">
<title>17</title>
<path fill="none" stroke="#9fd856" stroke-width="2" d="M1115,-540C1115,-540 978,-540 978,-540 972,-540 966,-534 966,-528 966,-528 966,-516 966,-516 966,-510 972,-504 978,-504 978,-504 1115,-504 1115,-504 1121,-504 1127,-510 1127,-516 1127,-516 1127,-528 1127,-528 1127,-534 1121,-540 1115,-540"/>
<text text-anchor="middle" x="1046.5" y="-519.5" font-family="sans" font-size="10.00" fill="#000000">mapping_human_genome_PE</text>
</g>
<!-- 6&#45;&gt;17 -->
<g id="edge34" class="edge">
<title>6&#45;&gt;17</title>
<path fill="none" stroke="#c0c0c0" stroke-width="2" d="M1152.6674,-575.8314C1134.0843,-566.4089 1111.2011,-554.8062 1091.4435,-544.7883"/>
<polygon fill="#c0c0c0" stroke="#c0c0c0" stroke-width="2" points="1092.823,-541.5635 1082.3211,-540.1628 1089.6573,-547.8069 1092.823,-541.5635"/>
</g>
<!-- 7 -->
<g id="node8" class="node">
<title>7</title>
<path fill="none" stroke="#d8bc56" stroke-width="2" d="M1843,-468C1843,-468 1764,-468 1764,-468 1758,-468 1752,-462 1752,-456 1752,-456 1752,-444 1752,-444 1752,-438 1758,-432 1764,-432 1764,-432 1843,-432 1843,-432 1849,-432 1855,-438 1855,-444 1855,-444 1855,-456 1855,-456 1855,-462 1849,-468 1843,-468"/>
<text text-anchor="middle" x="1803.5" y="-447.5" font-family="sans" font-size="10.00" fill="#000000">report_falco_after</text>
</g>
<!-- 7&#45;&gt;0 -->
<g id="edge3" class="edge">
<title>7&#45;&gt;0</title>
<path fill="none" stroke="#c0c0c0" stroke-width="2" d="M1777.3562,-431.8783C1745.3933,-407.3584 1695.5,-360.375 1695.5,-306 1695.5,-306 1695.5,-306 1695.5,-162 1695.5,-43.0715 1559.6718,-97.4581 1443.5,-72 1333.2778,-47.8457 986.0749,-26.5655 871.5515,-20.0461"/>
<polygon fill="#c0c0c0" stroke="#c0c0c0" stroke-width="2" points="871.702,-16.5491 861.5203,-19.4791 871.3068,-23.538 871.702,-16.5491"/>
</g>
<!-- 8&#45;&gt;7 -->
<g id="edge17" class="edge">
<title>8&#45;&gt;7</title>
<path fill="none" stroke="#c0c0c0" stroke-width="2" d="M1677.1458,-503.8314C1699.849,-494.159 1727.9451,-482.1891 1751.8742,-471.9944"/>
<polygon fill="#c0c0c0" stroke="#c0c0c0" stroke-width="2" points="1753.3328,-475.1775 1761.1608,-468.038 1750.5891,-468.7376 1753.3328,-475.1775"/>
</g>
<!-- 9&#45;&gt;7 -->
<g id="edge18" class="edge">
<title>9&#45;&gt;7</title>
<path fill="none" stroke="#c0c0c0" stroke-width="2" d="M1787.0515,-503.8314C1789.4303,-496.0463 1792.2638,-486.7729 1794.9033,-478.1347"/>
<polygon fill="#c0c0c0" stroke="#c0c0c0" stroke-width="2" points="1798.2987,-478.9996 1797.8737,-468.4133 1791.6042,-476.954 1798.2987,-478.9996"/>
</g>
<!-- 10 -->
<g id="node11" class="node">
<title>10</title>
<path fill="none" stroke="#56d8a2" stroke-width="2" d="M1545.5,-396C1545.5,-396 1435.5,-396 1435.5,-396 1429.5,-396 1423.5,-390 1423.5,-384 1423.5,-384 1423.5,-372 1423.5,-372 1423.5,-366 1429.5,-360 1435.5,-360 1435.5,-360 1545.5,-360 1545.5,-360 1551.5,-360 1557.5,-366 1557.5,-372 1557.5,-372 1557.5,-384 1557.5,-384 1557.5,-390 1551.5,-396 1545.5,-396"/>
<text text-anchor="middle" x="1490.5" y="-375.5" font-family="sans" font-size="10.00" fill="#000000">report_mapping_spikein</text>
</g>
<!-- 10&#45;&gt;0 -->
<g id="edge4" class="edge">
<title>10&#45;&gt;0</title>
<path fill="none" stroke="#c0c0c0" stroke-width="2" d="M1484.5619,-359.5823C1476.3428,-332.4106 1462.5,-279.8428 1462.5,-234 1462.5,-234 1462.5,-234 1462.5,-162 1462.5,-115.5795 1448.6786,-96.8979 1409.5,-72 1364.1667,-43.1908 991.8577,-24.7761 871.7199,-19.5395"/>
<polygon fill="#c0c0c0" stroke="#c0c0c0" stroke-width="2" points="871.6887,-16.035 861.5473,-19.1014 871.3874,-23.0285 871.6887,-16.035"/>
</g>
<!-- 11&#45;&gt;10 -->
<g id="edge21" class="edge">
<title>11&#45;&gt;10</title>
<path fill="none" stroke="#c0c0c0" stroke-width="2" d="M1152.9559,-503.8142C1137.1473,-495.4611 1121.4992,-483.8046 1112.5,-468 1104.583,-454.096 1102.0168,-444.0873 1112.5,-432 1131.8884,-409.645 1308.1183,-392.2046 1412.9709,-383.6983"/>
<polygon fill="#c0c0c0" stroke="#c0c0c0" stroke-width="2" points="1413.5114,-387.1663 1423.1997,-382.8784 1412.952,-380.1886 1413.5114,-387.1663"/>
</g>
<!-- 13 -->
<g id="node14" class="node">
<title>13</title>
<path fill="none" stroke="#d8ac56" stroke-width="2" d="M1273.5,-468C1273.5,-468 1133.5,-468 1133.5,-468 1127.5,-468 1121.5,-462 1121.5,-456 1121.5,-456 1121.5,-444 1121.5,-444 1121.5,-438 1127.5,-432 1133.5,-432 1133.5,-432 1273.5,-432 1273.5,-432 1279.5,-432 1285.5,-438 1285.5,-444 1285.5,-444 1285.5,-456 1285.5,-456 1285.5,-462 1279.5,-468 1273.5,-468"/>
<text text-anchor="middle" x="1203.5" y="-447.5" font-family="sans" font-size="10.00" fill="#000000">flag_sort_index_depth_spikein</text>
</g>
<!-- 11&#45;&gt;13 -->
<g id="edge27" class="edge">
<title>11&#45;&gt;13</title>
<path fill="none" stroke="#c0c0c0" stroke-width="2" d="M1203.5,-503.8314C1203.5,-496.131 1203.5,-486.9743 1203.5,-478.4166"/>
<polygon fill="#c0c0c0" stroke="#c0c0c0" stroke-width="2" points="1207.0001,-478.4132 1203.5,-468.4133 1200.0001,-478.4133 1207.0001,-478.4132"/>
</g>
<!-- 24 -->
<g id="node25" class="node">
<title>24</title>
<path fill="none" stroke="#c6d856" stroke-width="2" d="M1501.5,-468C1501.5,-468 1315.5,-468 1315.5,-468 1309.5,-468 1303.5,-462 1303.5,-456 1303.5,-456 1303.5,-444 1303.5,-444 1303.5,-438 1309.5,-432 1315.5,-432 1315.5,-432 1501.5,-432 1501.5,-432 1507.5,-432 1513.5,-438 1513.5,-444 1513.5,-444 1513.5,-456 1513.5,-456 1513.5,-462 1507.5,-468 1501.5,-468"/>
<text text-anchor="middle" x="1408.5" y="-447.5" font-family="sans" font-size="10.00" fill="#000000">featureCounts_spikein_lambda_window</text>
</g>
<!-- 11&#45;&gt;24 -->
<g id="edge45" class="edge">
<title>11&#45;&gt;24</title>
<path fill="none" stroke="#c0c0c0" stroke-width="2" d="M1254.9655,-503.9243C1282.9902,-494.0815 1317.8484,-481.8386 1347.264,-471.5073"/>
<polygon fill="#c0c0c0" stroke="#c0c0c0" stroke-width="2" points="1348.7381,-474.6992 1357.0133,-468.0831 1346.4184,-468.0947 1348.7381,-474.6992"/>
</g>
<!-- 12&#45;&gt;10 -->
<g id="edge22" class="edge">
<title>12&#45;&gt;10</title>
<path fill="none" stroke="#c0c0c0" stroke-width="2" d="M1487.6696,-514.5405C1564.2391,-504.1306 1690.8019,-484.6494 1704.5,-468 1746.8357,-416.5426 1645.237,-394.0123 1567.9552,-384.5076"/>
<polygon fill="#c0c0c0" stroke="#c0c0c0" stroke-width="2" points="1568.048,-380.9945 1557.7081,-383.3047 1567.2318,-387.9468 1568.048,-380.9945"/>
</g>
<!-- 14 -->
<g id="node15" class="node">
<title>14</title>
<path fill="none" stroke="#d8ac56" stroke-width="2" d="M1683.5,-468C1683.5,-468 1543.5,-468 1543.5,-468 1537.5,-468 1531.5,-462 1531.5,-456 1531.5,-456 1531.5,-444 1531.5,-444 1531.5,-438 1537.5,-432 1543.5,-432 1543.5,-432 1683.5,-432 1683.5,-432 1689.5,-432 1695.5,-438 1695.5,-444 1695.5,-444 1695.5,-456 1695.5,-456 1695.5,-462 1689.5,-468 1683.5,-468"/>
<text text-anchor="middle" x="1613.5" y="-447.5" font-family="sans" font-size="10.00" fill="#000000">flag_sort_index_depth_spikein</text>
</g>
<!-- 12&#45;&gt;14 -->
<g id="edge28" class="edge">
<title>12&#45;&gt;14</title>
<path fill="none" stroke="#c0c0c0" stroke-width="2" d="M1475.931,-503.8314C1500.868,-494.0734 1531.7809,-481.977 1557.9826,-471.7242"/>
<polygon fill="#c0c0c0" stroke="#c0c0c0" stroke-width="2" points="1559.3659,-474.9414 1567.4029,-468.038 1556.8151,-468.4227 1559.3659,-474.9414"/>
</g>
<!-- 12&#45;&gt;24 -->
<g id="edge46" class="edge">
<title>12&#45;&gt;24</title>
<path fill="none" stroke="#c0c0c0" stroke-width="2" d="M1424.2008,-503.8314C1421.9302,-496.0463 1419.2254,-486.7729 1416.706,-478.1347"/>
<polygon fill="#c0c0c0" stroke="#c0c0c0" stroke-width="2" points="1420.0306,-477.0332 1413.8705,-468.4133 1413.3106,-478.9933 1420.0306,-477.0332"/>
</g>
<!-- 13&#45;&gt;10 -->
<g id="edge23" class="edge">
<title>13&#45;&gt;10</title>
<path fill="none" stroke="#c0c0c0" stroke-width="2" d="M1275.5518,-431.9243C1317.6062,-421.3741 1370.6521,-408.0664 1413.5245,-397.3109"/>
<polygon fill="#c0c0c0" stroke="#c0c0c0" stroke-width="2" points="1414.5001,-400.6747 1423.3479,-394.8465 1412.7967,-393.8851 1414.5001,-400.6747"/>
</g>
<!-- 14&#45;&gt;10 -->
<g id="edge24" class="edge">
<title>14&#45;&gt;10</title>
<path fill="none" stroke="#c0c0c0" stroke-width="2" d="M1582.4619,-431.8314C1566.7295,-422.6221 1547.4389,-411.3301 1530.5956,-401.4706"/>
<polygon fill="#c0c0c0" stroke="#c0c0c0" stroke-width="2" points="1531.9265,-398.1941 1521.5282,-396.1628 1528.3902,-404.2352 1531.9265,-398.1941"/>
</g>
<!-- 15 -->
<g id="node16" class="node">
<title>15</title>
<path fill="none" stroke="#61d856" stroke-width="2" d="M737.5,-396C737.5,-396 605.5,-396 605.5,-396 599.5,-396 593.5,-390 593.5,-384 593.5,-384 593.5,-372 593.5,-372 593.5,-366 599.5,-360 605.5,-360 605.5,-360 737.5,-360 737.5,-360 743.5,-360 749.5,-366 749.5,-372 749.5,-372 749.5,-384 749.5,-384 749.5,-390 743.5,-396 737.5,-396"/>
<text text-anchor="middle" x="671.5" y="-375.5" font-family="sans" font-size="10.00" fill="#000000">report_mapping_hg_genome</text>
</g>
<!-- 15&#45;&gt;0 -->
<g id="edge5" class="edge">
<title>15&#45;&gt;0</title>
<path fill="none" stroke="#c0c0c0" stroke-width="2" d="M686.5914,-359.7475C706.6248,-333.6068 739.5,-283.2121 739.5,-234 739.5,-234 739.5,-234 739.5,-162 739.5,-120.6022 740.4477,-106.3856 763.5,-72 772.4685,-58.6222 785.8679,-47.2017 798.6179,-38.3562"/>
<polygon fill="#c0c0c0" stroke="#c0c0c0" stroke-width="2" points="800.8529,-41.0751 807.2787,-32.6512 797.0023,-35.2293 800.8529,-41.0751"/>
</g>
<!-- 16&#45;&gt;15 -->
<g id="edge29" class="edge">
<title>16&#45;&gt;15</title>
<path fill="none" stroke="#c0c0c0" stroke-width="2" d="M696.104,-503.8067C704.7033,-494.0891 713.9937,-481.3872 718.5,-468 723.6044,-452.8361 724.1079,-446.985 718.5,-432 714.6046,-421.5911 707.6959,-411.8652 700.3544,-403.6152"/>
<polygon fill="#c0c0c0" stroke="#c0c0c0" stroke-width="2" points="702.7014,-401.0048 693.2672,-396.1835 697.6357,-405.8358 702.7014,-401.0048"/>
</g>
<!-- 18 -->
<g id="node19" class="node">
<title>18</title>
<path fill="none" stroke="#d89556" stroke-width="2" d="M697.5,-468C697.5,-468 535.5,-468 535.5,-468 529.5,-468 523.5,-462 523.5,-456 523.5,-456 523.5,-444 523.5,-444 523.5,-438 529.5,-432 535.5,-432 535.5,-432 697.5,-432 697.5,-432 703.5,-432 709.5,-438 709.5,-444 709.5,-444 709.5,-456 709.5,-456 709.5,-462 703.5,-468 697.5,-468"/>
<text text-anchor="middle" x="616.5" y="-447.5" font-family="sans" font-size="10.00" fill="#000000">flag_sort_index_depth_hg_genome</text>
</g>
<!-- 16&#45;&gt;18 -->
<g id="edge35" class="edge">
<title>16&#45;&gt;18</title>
<path fill="none" stroke="#c0c0c0" stroke-width="2" d="M662.1071,-503.8314C655.0096,-495.454 646.452,-485.3531 638.676,-476.1749"/>
<polygon fill="#c0c0c0" stroke="#c0c0c0" stroke-width="2" points="641.2348,-473.7807 632.1001,-468.4133 635.8939,-478.3056 641.2348,-473.7807"/>
</g>
<!-- 21 -->
<g id="node22" class="node">
<title>21</title>
<path fill="none" stroke="#56a9d8" stroke-width="2" d="M563,-396C563,-396 478,-396 478,-396 472,-396 466,-390 466,-384 466,-384 466,-372 466,-372 466,-366 472,-360 478,-360 478,-360 563,-360 563,-360 569,-360 575,-366 575,-372 575,-372 575,-384 575,-384 575,-390 569,-396 563,-396"/>
<text text-anchor="middle" x="520.5" y="-375.5" font-family="sans" font-size="10.00" fill="#000000">dedup_hg_genome</text>
</g>
<!-- 16&#45;&gt;21 -->
<g id="edge39" class="edge">
<title>16&#45;&gt;21</title>
<path fill="none" stroke="#c0c0c0" stroke-width="2" d="M596.7882,-504.6309C561.1383,-495.1659 524.9282,-482.4404 514.5,-468 501.6772,-450.2439 504.6566,-425.0256 509.9988,-405.7989"/>
<polygon fill="#c0c0c0" stroke="#c0c0c0" stroke-width="2" points="513.3904,-406.6798 513.0302,-396.0911 506.7085,-404.5933 513.3904,-406.6798"/>
</g>
<!-- 17&#45;&gt;15 -->
<g id="edge30" class="edge">
<title>17&#45;&gt;15</title>
<path fill="none" stroke="#c0c0c0" stroke-width="2" d="M965.7533,-503.938C915.8118,-492.3196 856.7565,-477.6449 832.5,-468 787.2136,-449.9932 738.8707,-421.5879 707.1109,-401.512"/>
<polygon fill="#c0c0c0" stroke="#c0c0c0" stroke-width="2" points="708.9216,-398.5156 698.6091,-396.086 705.1557,-404.4163 708.9216,-398.5156"/>
</g>
<!-- 19 -->
<g id="node20" class="node">
<title>19</title>
<path fill="none" stroke="#d89556" stroke-width="2" d="M1015.5,-468C1015.5,-468 853.5,-468 853.5,-468 847.5,-468 841.5,-462 841.5,-456 841.5,-456 841.5,-444 841.5,-444 841.5,-438 847.5,-432 853.5,-432 853.5,-432 1015.5,-432 1015.5,-432 1021.5,-432 1027.5,-438 1027.5,-444 1027.5,-444 1027.5,-456 1027.5,-456 1027.5,-462 1021.5,-468 1015.5,-468"/>
<text text-anchor="middle" x="934.5" y="-447.5" font-family="sans" font-size="10.00" fill="#000000">flag_sort_index_depth_hg_genome</text>
</g>
<!-- 17&#45;&gt;19 -->
<g id="edge36" class="edge">
<title>17&#45;&gt;19</title>
<path fill="none" stroke="#c0c0c0" stroke-width="2" d="M1018.2377,-503.8314C1004.0448,-494.7074 986.6718,-483.539 971.4364,-473.7449"/>
<polygon fill="#c0c0c0" stroke="#c0c0c0" stroke-width="2" points="973.0578,-470.6263 962.7533,-468.1628 969.2724,-476.5146 973.0578,-470.6263"/>
</g>
<!-- 22 -->
<g id="node23" class="node">
<title>22</title>
<path fill="none" stroke="#56a9d8" stroke-width="2" d="M1094,-396C1094,-396 1009,-396 1009,-396 1003,-396 997,-390 997,-384 997,-384 997,-372 997,-372 997,-366 1003,-360 1009,-360 1009,-360 1094,-360 1094,-360 1100,-360 1106,-366 1106,-372 1106,-372 1106,-384 1106,-384 1106,-390 1100,-396 1094,-396"/>
<text text-anchor="middle" x="1051.5" y="-375.5" font-family="sans" font-size="10.00" fill="#000000">dedup_hg_genome</text>
</g>
<!-- 17&#45;&gt;22 -->
<g id="edge41" class="edge">
<title>17&#45;&gt;22</title>
<path fill="none" stroke="#c0c0c0" stroke-width="2" d="M1047.1333,-503.7623C1047.9861,-479.201 1049.5122,-435.2474 1050.5155,-406.3541"/>
<polygon fill="#c0c0c0" stroke="#c0c0c0" stroke-width="2" points="1054.0227,-406.2051 1050.8719,-396.0896 1047.0269,-405.9621 1054.0227,-406.2051"/>
</g>
<!-- 18&#45;&gt;15 -->
<g id="edge31" class="edge">
<title>18&#45;&gt;15</title>
<path fill="none" stroke="#c0c0c0" stroke-width="2" d="M630.3788,-431.8314C636.7136,-423.5386 644.3384,-413.557 651.2926,-404.4533"/>
<polygon fill="#c0c0c0" stroke="#c0c0c0" stroke-width="2" points="654.1452,-406.4847 657.4343,-396.4133 648.5825,-402.2353 654.1452,-406.4847"/>
</g>
<!-- 18&#45;&gt;21 -->
<g id="edge40" class="edge">
<title>18&#45;&gt;21</title>
<path fill="none" stroke="#c0c0c0" stroke-width="2" d="M592.2751,-431.8314C580.3372,-422.8779 565.7744,-411.9558 552.894,-402.2955"/>
<polygon fill="#c0c0c0" stroke="#c0c0c0" stroke-width="2" points="554.8171,-399.3629 544.7171,-396.1628 550.6171,-404.9629 554.8171,-399.3629"/>
</g>
<!-- 19&#45;&gt;15 -->
<g id="edge32" class="edge">
<title>19&#45;&gt;15</title>
<path fill="none" stroke="#c0c0c0" stroke-width="2" d="M868.4735,-431.9243C831.7382,-421.8675 785.8508,-409.3052 747.6102,-398.8363"/>
<polygon fill="#c0c0c0" stroke="#c0c0c0" stroke-width="2" points="748.123,-395.3479 737.5537,-396.0831 746.2746,-402.0995 748.123,-395.3479"/>
</g>
<!-- 19&#45;&gt;22 -->
<g id="edge42" class="edge">
<title>19&#45;&gt;22</title>
<path fill="none" stroke="#c0c0c0" stroke-width="2" d="M964.024,-431.8314C978.9891,-422.6221 997.3386,-411.3301 1013.3603,-401.4706"/>
<polygon fill="#c0c0c0" stroke="#c0c0c0" stroke-width="2" points="1015.3032,-404.3847 1021.9854,-396.1628 1011.6345,-398.423 1015.3032,-404.3847"/>
</g>
<!-- 20 -->
<g id="node21" class="node">
<title>20</title>
<path fill="none" stroke="#56d88a" stroke-width="2" d="M937,-324C937,-324 818,-324 818,-324 812,-324 806,-318 806,-312 806,-312 806,-300 806,-300 806,-294 812,-288 818,-288 818,-288 937,-288 937,-288 943,-288 949,-294 949,-300 949,-300 949,-312 949,-312 949,-318 943,-324 937,-324"/>
<text text-anchor="middle" x="877.5" y="-303.5" font-family="sans" font-size="10.00" fill="#000000">report_dedup_hg_genome</text>
</g>
<!-- 20&#45;&gt;0 -->
<g id="edge6" class="edge">
<title>20&#45;&gt;0</title>
<path fill="none" stroke="#c0c0c0" stroke-width="2" d="M860.3549,-287.5379C852.4097,-277.7518 843.7918,-265.0697 839.5,-252 816.1936,-181.026 823.7828,-91.3124 829.9127,-46.3765"/>
<polygon fill="#c0c0c0" stroke="#c0c0c0" stroke-width="2" points="833.4156,-46.6078 831.3811,-36.2101 826.4875,-45.6071 833.4156,-46.6078"/>
</g>
<!-- 21&#45;&gt;20 -->
<g id="edge37" class="edge">
<title>21&#45;&gt;20</title>
<path fill="none" stroke="#c0c0c0" stroke-width="2" d="M575.2273,-362.2509C578.3572,-361.4616 581.4644,-360.705 584.5,-360 655.3471,-343.5452 736.7647,-328.8748 795.7655,-318.993"/>
<polygon fill="#c0c0c0" stroke="#c0c0c0" stroke-width="2" points="796.4844,-322.4216 805.7738,-317.3267 795.3347,-315.5166 796.4844,-322.4216"/>
</g>
<!-- 23 -->
<g id="node24" class="node">
<title>23</title>
<path fill="none" stroke="#5682d8" stroke-width="2" d="M1119.5,-324C1119.5,-324 979.5,-324 979.5,-324 973.5,-324 967.5,-318 967.5,-312 967.5,-312 967.5,-300 967.5,-300 967.5,-294 973.5,-288 979.5,-288 979.5,-288 1119.5,-288 1119.5,-288 1125.5,-288 1131.5,-294 1131.5,-300 1131.5,-300 1131.5,-312 1131.5,-312 1131.5,-318 1125.5,-324 1119.5,-324"/>
<text text-anchor="middle" x="1049.5" y="-303.5" font-family="sans" font-size="10.00" fill="#000000">featureCounts_hg_tss_2000bp</text>
</g>
<!-- 21&#45;&gt;23 -->
<g id="edge43" class="edge">
<title>21&#45;&gt;23</title>
<path fill="none" stroke="#c0c0c0" stroke-width="2" d="M575.1611,-361.935C578.3079,-361.2262 581.4368,-360.5734 584.5,-360 745.4332,-329.8723 791.4877,-347.5099 957.1774,-324.1032"/>
<polygon fill="#c0c0c0" stroke="#c0c0c0" stroke-width="2" points="957.8252,-327.5461 967.2234,-322.6548 956.8263,-320.6177 957.8252,-327.5461"/>
</g>
<!-- 27 -->
<g id="node28" class="node">
<title>27</title>
<path fill="none" stroke="#d85656" stroke-width="2" d="M588,-252C588,-252 523,-252 523,-252 517,-252 511,-246 511,-240 511,-240 511,-228 511,-228 511,-222 517,-216 523,-216 523,-216 588,-216 588,-216 594,-216 600,-222 600,-228 600,-228 600,-240 600,-240 600,-246 594,-252 588,-252"/>
<text text-anchor="middle" x="555.5" y="-231.5" font-family="sans" font-size="10.00" fill="#000000">bam_coverage</text>
</g>
<!-- 21&#45;&gt;27 -->
<g id="edge49" class="edge">
<title>21&#45;&gt;27</title>
<path fill="none" stroke="#c0c0c0" stroke-width="2" d="M554.589,-359.9135C567.7208,-351.0032 581.2897,-338.9331 588.5,-324 598.512,-303.2645 588.0622,-278.6533 576.344,-260.4127"/>
<polygon fill="#c0c0c0" stroke="#c0c0c0" stroke-width="2" points="579.1215,-258.2746 570.5736,-252.0149 573.3522,-262.2389 579.1215,-258.2746"/>
</g>
<!-- 28 -->
<g id="node29" class="node">
<title>28</title>
<path fill="none" stroke="#566bd8" stroke-width="2" d="M567.5,-324C567.5,-324 455.5,-324 455.5,-324 449.5,-324 443.5,-318 443.5,-312 443.5,-312 443.5,-300 443.5,-300 443.5,-294 449.5,-288 455.5,-288 455.5,-288 567.5,-288 567.5,-288 573.5,-288 579.5,-294 579.5,-300 579.5,-300 579.5,-312 579.5,-312 579.5,-318 573.5,-324 567.5,-324"/>
<text text-anchor="middle" x="511.5" y="-303.5" font-family="sans" font-size="10.00" fill="#000000">index_deduped_genome</text>
</g>
<!-- 21&#45;&gt;28 -->
<g id="edge51" class="edge">
<title>21&#45;&gt;28</title>
<path fill="none" stroke="#c0c0c0" stroke-width="2" d="M518.2289,-359.8314C517.2664,-352.131 516.1218,-342.9743 515.0521,-334.4166"/>
<polygon fill="#c0c0c0" stroke="#c0c0c0" stroke-width="2" points="518.5151,-333.9019 513.8017,-324.4133 511.5691,-334.7702 518.5151,-333.9019"/>
</g>
<!-- 22&#45;&gt;20 -->
<g id="edge38" class="edge">
<title>22&#45;&gt;20</title>
<path fill="none" stroke="#c0c0c0" stroke-width="2" d="M1007.5925,-359.8314C984.2176,-350.159 955.2903,-338.1891 930.6532,-327.9944"/>
<polygon fill="#c0c0c0" stroke="#c0c0c0" stroke-width="2" points="931.6702,-324.6275 921.0918,-324.038 928.9937,-331.0956 931.6702,-324.6275"/>
</g>
<!-- 22&#45;&gt;23 -->
<g id="edge44" class="edge">
<title>22&#45;&gt;23</title>
<path fill="none" stroke="#c0c0c0" stroke-width="2" d="M1050.9953,-359.8314C1050.7814,-352.131 1050.5271,-342.9743 1050.2894,-334.4166"/>
<polygon fill="#c0c0c0" stroke="#c0c0c0" stroke-width="2" points="1053.7879,-334.3122 1050.0115,-324.4133 1046.7906,-334.5066 1053.7879,-334.3122"/>
</g>
<!-- 31 -->
<g id="node32" class="node">
<title>31</title>
<path fill="none" stroke="#d85656" stroke-width="2" d="M1264,-252C1264,-252 1199,-252 1199,-252 1193,-252 1187,-246 1187,-240 1187,-240 1187,-228 1187,-228 1187,-222 1193,-216 1199,-216 1199,-216 1264,-216 1264,-216 1270,-216 1276,-222 1276,-228 1276,-228 1276,-240 1276,-240 1276,-246 1270,-252 1264,-252"/>
<text text-anchor="middle" x="1231.5" y="-231.5" font-family="sans" font-size="10.00" fill="#000000">bam_coverage</text>
</g>
<!-- 22&#45;&gt;31 -->
<g id="edge54" class="edge">
<title>22&#45;&gt;31</title>
<path fill="none" stroke="#c0c0c0" stroke-width="2" d="M1106.15,-373.6543C1170.4296,-367.276 1271.3454,-352.8648 1294.5,-324 1311.6878,-302.5734 1289.5977,-276.7707 1266.9835,-258.2971"/>
<polygon fill="#c0c0c0" stroke="#c0c0c0" stroke-width="2" points="1269.0632,-255.4804 1259.0263,-252.0875 1264.7567,-260.999 1269.0632,-255.4804"/>
</g>
<!-- 32 -->
<g id="node33" class="node">
<title>32</title>
<path fill="none" stroke="#566bd8" stroke-width="2" d="M1273.5,-324C1273.5,-324 1161.5,-324 1161.5,-324 1155.5,-324 1149.5,-318 1149.5,-312 1149.5,-312 1149.5,-300 1149.5,-300 1149.5,-294 1155.5,-288 1161.5,-288 1161.5,-288 1273.5,-288 1273.5,-288 1279.5,-288 1285.5,-294 1285.5,-300 1285.5,-300 1285.5,-312 1285.5,-312 1285.5,-318 1279.5,-324 1273.5,-324"/>
<text text-anchor="middle" x="1217.5" y="-303.5" font-family="sans" font-size="10.00" fill="#000000">index_deduped_genome</text>
</g>
<!-- 22&#45;&gt;32 -->
<g id="edge56" class="edge">
<title>22&#45;&gt;32</title>
<path fill="none" stroke="#c0c0c0" stroke-width="2" d="M1093.3888,-359.8314C1115.5903,-350.2018 1143.0422,-338.295 1166.4784,-328.1299"/>
<polygon fill="#c0c0c0" stroke="#c0c0c0" stroke-width="2" points="1168.1309,-331.2282 1175.9124,-324.038 1165.3455,-324.8062 1168.1309,-331.2282"/>
</g>
<!-- 23&#45;&gt;0 -->
<g id="edge7" class="edge">
<title>23&#45;&gt;0</title>
<path fill="none" stroke="#c0c0c0" stroke-width="2" d="M1008.8313,-287.8428C968.0128,-267.485 906.4569,-230.5757 872.5,-180 857.9397,-158.3137 844.988,-86.4266 838.638,-46.0846"/>
<polygon fill="#c0c0c0" stroke="#c0c0c0" stroke-width="2" points="842.0792,-45.4341 837.0974,-36.0836 835.1608,-46.4999 842.0792,-45.4341"/>
</g>
<!-- 24&#45;&gt;0 -->
<g id="edge8" class="edge">
<title>24&#45;&gt;0</title>
<path fill="none" stroke="#c0c0c0" stroke-width="2" d="M1405.8064,-431.862C1401.9986,-404.6061 1395.5,-351.434 1395.5,-306 1395.5,-306 1395.5,-306 1395.5,-162 1395.5,-119.2408 1395.3879,-98.076 1361.5,-72 1322.8395,-42.2516 986.3129,-24.723 872.1766,-19.5915"/>
<polygon fill="#c0c0c0" stroke="#c0c0c0" stroke-width="2" points="871.988,-16.0798 861.8428,-19.1336 871.6781,-23.0729 871.988,-16.0798"/>
</g>
<!-- 25 -->
<g id="node26" class="node">
<title>25</title>
<path fill="none" stroke="#5692d8" stroke-width="2" d="M696,-108C696,-108 507,-108 507,-108 501,-108 495,-102 495,-96 495,-96 495,-84 495,-84 495,-78 501,-72 507,-72 507,-72 696,-72 696,-72 702,-72 708,-78 708,-84 708,-84 708,-96 708,-96 708,-102 702,-108 696,-108"/>
<text text-anchor="middle" x="601.5" y="-87.5" font-family="sans" font-size="10.00" fill="#000000">plot_heatmap_scale_region_hg_genome</text>
</g>
<!-- 25&#45;&gt;0 -->
<g id="edge9" class="edge">
<title>25&#45;&gt;0</title>
<path fill="none" stroke="#c0c0c0" stroke-width="2" d="M659.995,-71.9243C703.1214,-58.5977 760.4857,-40.8714 797.4568,-29.4468"/>
<polygon fill="#c0c0c0" stroke="#c0c0c0" stroke-width="2" points="798.7942,-32.6969 807.315,-26.4005 796.7274,-26.009 798.7942,-32.6969"/>
</g>
<!-- 26 -->
<g id="node27" class="node">
<title>26</title>
<path fill="none" stroke="#d8d356" stroke-width="2" d="M699.5,-180C699.5,-180 497.5,-180 497.5,-180 491.5,-180 485.5,-174 485.5,-168 485.5,-168 485.5,-156 485.5,-156 485.5,-150 491.5,-144 497.5,-144 497.5,-144 699.5,-144 699.5,-144 705.5,-144 711.5,-150 711.5,-156 711.5,-156 711.5,-168 711.5,-168 711.5,-174 705.5,-180 699.5,-180"/>
<text text-anchor="middle" x="598.5" y="-159.5" font-family="sans" font-size="10.00" fill="#000000">compute_matrix_scale_region_hg_genome</text>
</g>
<!-- 26&#45;&gt;25 -->
<g id="edge47" class="edge">
<title>26&#45;&gt;25</title>
<path fill="none" stroke="#c0c0c0" stroke-width="2" d="M599.257,-143.8314C599.5779,-136.131 599.9594,-126.9743 600.316,-118.4166"/>
<polygon fill="#c0c0c0" stroke="#c0c0c0" stroke-width="2" points="603.8133,-118.5503 600.7328,-108.4133 596.8194,-118.2589 603.8133,-118.5503"/>
</g>
<!-- 27&#45;&gt;26 -->
<g id="edge48" class="edge">
<title>27&#45;&gt;26</title>
<path fill="none" stroke="#c0c0c0" stroke-width="2" d="M566.3507,-215.8314C571.2023,-207.7079 577.0217,-197.9637 582.368,-189.0118"/>
<polygon fill="#c0c0c0" stroke="#c0c0c0" stroke-width="2" points="585.3806,-190.7933 587.5032,-180.4133 579.3708,-187.2041 585.3806,-190.7933"/>
</g>
<!-- 34 -->
<g id="node35" class="node">
<title>34</title>
<path fill="none" stroke="#88d856" stroke-width="2" d="M455,-180C455,-180 238,-180 238,-180 232,-180 226,-174 226,-168 226,-168 226,-156 226,-156 226,-150 232,-144 238,-144 238,-144 455,-144 455,-144 461,-144 467,-150 467,-156 467,-156 467,-168 467,-168 467,-174 461,-180 455,-180"/>
<text text-anchor="middle" x="346.5" y="-159.5" font-family="sans" font-size="10.00" fill="#000000">compute_matrix_reference_point_hg_genome</text>
</g>
<!-- 27&#45;&gt;34 -->
<g id="edge58" class="edge">
<title>27&#45;&gt;34</title>
<path fill="none" stroke="#c0c0c0" stroke-width="2" d="M510.9206,-218.6425C481.0234,-208.343 441.243,-194.6387 408.3,-183.29"/>
<polygon fill="#c0c0c0" stroke="#c0c0c0" stroke-width="2" points="409.355,-179.9516 398.7603,-180.0036 407.075,-186.5699 409.355,-179.9516"/>
</g>
<!-- 28&#45;&gt;27 -->
<g id="edge50" class="edge">
<title>28&#45;&gt;27</title>
<path fill="none" stroke="#c0c0c0" stroke-width="2" d="M522.6031,-287.8314C527.5674,-279.7079 533.5222,-269.9637 538.9928,-261.0118"/>
<polygon fill="#c0c0c0" stroke="#c0c0c0" stroke-width="2" points="542.0194,-262.7712 544.2474,-252.4133 536.0464,-259.121 542.0194,-262.7712"/>
</g>
<!-- 29 -->
<g id="node30" class="node">
<title>29</title>
<path fill="none" stroke="#5692d8" stroke-width="2" d="M1086,-108C1086,-108 897,-108 897,-108 891,-108 885,-102 885,-96 885,-96 885,-84 885,-84 885,-78 891,-72 897,-72 897,-72 1086,-72 1086,-72 1092,-72 1098,-78 1098,-84 1098,-84 1098,-96 1098,-96 1098,-102 1092,-108 1086,-108"/>
<text text-anchor="middle" x="991.5" y="-87.5" font-family="sans" font-size="10.00" fill="#000000">plot_heatmap_scale_region_hg_genome</text>
</g>
<!-- 29&#45;&gt;0 -->
<g id="edge10" class="edge">
<title>29&#45;&gt;0</title>
<path fill="none" stroke="#c0c0c0" stroke-width="2" d="M951.8823,-71.8314C927.022,-60.4305 895.2012,-45.8375 870.9637,-34.7222"/>
<polygon fill="#c0c0c0" stroke="#c0c0c0" stroke-width="2" points="872.2952,-31.4824 861.7464,-30.4952 869.3772,-37.8452 872.2952,-31.4824"/>
</g>
<!-- 30 -->
<g id="node31" class="node">
<title>30</title>
<path fill="none" stroke="#d8d356" stroke-width="2" d="M1095.5,-180C1095.5,-180 893.5,-180 893.5,-180 887.5,-180 881.5,-174 881.5,-168 881.5,-168 881.5,-156 881.5,-156 881.5,-150 887.5,-144 893.5,-144 893.5,-144 1095.5,-144 1095.5,-144 1101.5,-144 1107.5,-150 1107.5,-156 1107.5,-156 1107.5,-168 1107.5,-168 1107.5,-174 1101.5,-180 1095.5,-180"/>
<text text-anchor="middle" x="994.5" y="-159.5" font-family="sans" font-size="10.00" fill="#000000">compute_matrix_scale_region_hg_genome</text>
</g>
<!-- 30&#45;&gt;29 -->
<g id="edge52" class="edge">
<title>30&#45;&gt;29</title>
<path fill="none" stroke="#c0c0c0" stroke-width="2" d="M993.743,-143.8314C993.4221,-136.131 993.0406,-126.9743 992.684,-118.4166"/>
<polygon fill="#c0c0c0" stroke="#c0c0c0" stroke-width="2" points="996.1806,-118.2589 992.2672,-108.4133 989.1867,-118.5503 996.1806,-118.2589"/>
</g>
<!-- 31&#45;&gt;30 -->
<g id="edge53" class="edge">
<title>31&#45;&gt;30</title>
<path fill="none" stroke="#c0c0c0" stroke-width="2" d="M1186.9221,-220.4574C1152.2373,-209.9202 1103.4844,-195.1092 1063.7314,-183.0323"/>
<polygon fill="#c0c0c0" stroke="#c0c0c0" stroke-width="2" points="1064.6804,-179.6627 1054.0947,-180.1047 1062.6455,-186.3605 1064.6804,-179.6627"/>
</g>
<!-- 36 -->
<g id="node37" class="node">
<title>36</title>
<path fill="none" stroke="#88d856" stroke-width="2" d="M1355,-180C1355,-180 1138,-180 1138,-180 1132,-180 1126,-174 1126,-168 1126,-168 1126,-156 1126,-156 1126,-150 1132,-144 1138,-144 1138,-144 1355,-144 1355,-144 1361,-144 1367,-150 1367,-156 1367,-156 1367,-168 1367,-168 1367,-174 1361,-180 1355,-180"/>
<text text-anchor="middle" x="1246.5" y="-159.5" font-family="sans" font-size="10.00" fill="#000000">compute_matrix_reference_point_hg_genome</text>
</g>
<!-- 31&#45;&gt;36 -->
<g id="edge60" class="edge">
<title>31&#45;&gt;36</title>
<path fill="none" stroke="#c0c0c0" stroke-width="2" d="M1235.2851,-215.8314C1236.8894,-208.131 1238.797,-198.9743 1240.5799,-190.4166"/>
<polygon fill="#c0c0c0" stroke="#c0c0c0" stroke-width="2" points="1244.0507,-190.9169 1242.6639,-180.4133 1237.1979,-189.4892 1244.0507,-190.9169"/>
</g>
<!-- 32&#45;&gt;31 -->
<g id="edge55" class="edge">
<title>32&#45;&gt;31</title>
<path fill="none" stroke="#c0c0c0" stroke-width="2" d="M1221.0328,-287.8314C1222.5301,-280.131 1224.3105,-270.9743 1225.9745,-262.4166"/>
<polygon fill="#c0c0c0" stroke="#c0c0c0" stroke-width="2" points="1229.4465,-262.8975 1227.9196,-252.4133 1222.5752,-261.5614 1229.4465,-262.8975"/>
</g>
<!-- 33 -->
<g id="node34" class="node">
<title>33</title>
<path fill="none" stroke="#56d8c9" stroke-width="2" d="M456.5,-108C456.5,-108 252.5,-108 252.5,-108 246.5,-108 240.5,-102 240.5,-96 240.5,-96 240.5,-84 240.5,-84 240.5,-78 246.5,-72 252.5,-72 252.5,-72 456.5,-72 456.5,-72 462.5,-72 468.5,-78 468.5,-84 468.5,-84 468.5,-96 468.5,-96 468.5,-102 462.5,-108 456.5,-108"/>
<text text-anchor="middle" x="354.5" y="-87.5" font-family="sans" font-size="10.00" fill="#000000">plot_heatmap_reference_point_hg_genome</text>
</g>
<!-- 33&#45;&gt;0 -->
<g id="edge11" class="edge">
<title>33&#45;&gt;0</title>
<path fill="none" stroke="#c0c0c0" stroke-width="2" d="M468.5576,-72.8914C575.1023,-56.9097 727.852,-33.9972 797.4331,-23.56"/>
<polygon fill="#c0c0c0" stroke="#c0c0c0" stroke-width="2" points="798.1037,-26.9987 807.4738,-22.0539 797.0653,-20.0761 798.1037,-26.9987"/>
</g>
<!-- 34&#45;&gt;33 -->
<g id="edge57" class="edge">
<title>34&#45;&gt;33</title>
<path fill="none" stroke="#c0c0c0" stroke-width="2" d="M348.5187,-143.8314C349.3743,-136.131 350.3917,-126.9743 351.3426,-118.4166"/>
<polygon fill="#c0c0c0" stroke="#c0c0c0" stroke-width="2" points="354.8283,-118.7386 352.4541,-108.4133 347.8711,-117.9656 354.8283,-118.7386"/>
</g>
<!-- 35 -->
<g id="node36" class="node">
<title>35</title>
<path fill="none" stroke="#56d8c9" stroke-width="2" d="M1340.5,-108C1340.5,-108 1136.5,-108 1136.5,-108 1130.5,-108 1124.5,-102 1124.5,-96 1124.5,-96 1124.5,-84 1124.5,-84 1124.5,-78 1130.5,-72 1136.5,-72 1136.5,-72 1340.5,-72 1340.5,-72 1346.5,-72 1352.5,-78 1352.5,-84 1352.5,-84 1352.5,-96 1352.5,-96 1352.5,-102 1346.5,-108 1340.5,-108"/>
<text text-anchor="middle" x="1238.5" y="-87.5" font-family="sans" font-size="10.00" fill="#000000">plot_heatmap_reference_point_hg_genome</text>
</g>
<!-- 35&#45;&gt;0 -->
<g id="edge12" class="edge">
<title>35&#45;&gt;0</title>
<path fill="none" stroke="#c0c0c0" stroke-width="2" d="M1137.3356,-71.9707C1050.9047,-56.5672 931.348,-35.26 871.6038,-24.6126"/>
<polygon fill="#c0c0c0" stroke="#c0c0c0" stroke-width="2" points="871.9684,-21.1225 861.5094,-22.8136 870.7402,-28.0139 871.9684,-21.1225"/>
</g>
<!-- 36&#45;&gt;35 -->
<g id="edge59" class="edge">
<title>36&#45;&gt;35</title>
<path fill="none" stroke="#c0c0c0" stroke-width="2" d="M1244.4813,-143.8314C1243.6257,-136.131 1242.6083,-126.9743 1241.6574,-118.4166"/>
<polygon fill="#c0c0c0" stroke="#c0c0c0" stroke-width="2" points="1245.1289,-117.9656 1240.5459,-108.4133 1238.1717,-118.7386 1245.1289,-117.9656"/>
</g>
</g>
</svg>
